<svg width="35" height="45" viewBox="0 0 35 45" fill="none" xmlns="http://www.w3.org/2000/svg">
<path d="M17.5449 5.89268C18.8056 5.89268 19.8275 4.86824 19.8275 3.60454C19.8275 2.34084 18.8056 1.31641 17.5449 1.31641C16.2843 1.31641 15.2623 2.34084 15.2623 3.60454C15.2623 4.86824 16.2843 5.89268 17.5449 5.89268Z" fill="white"/>
<path d="M5.18077 14.8355C5.8336 16.0719 6.48642 15.9262 6.92164 15.7813L13.8121 13.455L18.1643 11.4186L19.6145 12.3636L20.8478 15.7081L18.8894 17.4532L11.636 22.4703L0.756317 26.9054L1.48219 29.0868L15.1177 25.451L21.0654 23.2696L23.0239 32.4313L23.8221 43.6279H25.9982L26.8686 31.2674V20.3614L26.1427 10.1822L24.6917 8.7285L29.1162 6.6196L34.2658 3.34756C34.2658 3.34756 35.1362 2.69316 34.4834 1.09375L30.7117 3.34833L23.6037 7.12909L20.122 8.00163L16.9309 9.74672L14.8278 10.9823L10.6202 12.9455L5.18077 14.8355Z" fill="white"/>
<path d="M17.4384 5.8925C18.6402 5.8925 19.6145 4.91587 19.6145 3.71114C19.6145 2.50641 18.6402 1.52979 17.4384 1.52979C16.2366 1.52979 15.2623 2.50641 15.2623 3.71114C15.2623 4.91587 16.2366 5.8925 17.4384 5.8925Z" stroke="#FF5520" stroke-width="2" stroke-miterlimit="10"/>
<path d="M23.9666 22.0341L16.4957 24.8691C15.7705 25.1604 14.5372 25.5235 13.7398 25.7416L2.85935 28.6506C2.53146 28.7748 2.16858 28.7687 1.84506 28.6334C1.52154 28.4981 1.26187 28.244 1.11924 27.923C0.901636 27.3418 1.33685 26.6142 2.13424 26.2511L10.3303 22.9066C11.2139 22.5182 12.0632 22.0559 12.8694 21.5246L17.729 18.1801C18.3819 17.7438 19.3969 16.9445 19.9051 16.5082C20.1687 16.2037 20.3529 15.8385 20.4415 15.4453C20.53 15.052 20.5201 14.6429 20.4126 14.2544L20.195 13.6C19.9353 12.9039 19.5126 12.2806 18.9624 11.7825C18.7093 11.6569 18.4668 11.511 18.2373 11.3462" stroke="#FF5520" stroke-width="2" stroke-linecap="round" stroke-linejoin="round"/>
<path d="M21.0654 23.2705L22.661 31.0501C22.8055 31.8495 23.0239 33.1583 23.0962 33.9576L23.676 42.1735C23.749 42.9736 24.2565 43.628 24.8371 43.628C25.1767 43.5745 25.484 43.3956 25.6987 43.1264C25.9135 42.8573 26.02 42.5174 25.9974 42.1735L26.7225 32.722C26.7948 31.9219 26.7948 30.6131 26.7948 29.8138V21.816C26.7948 21.0159 26.7225 19.7071 26.7225 18.9078L26.215 11.6368C26.0812 10.7296 25.7053 9.87549 25.1269 9.16488L23.2408 7.20166" stroke="#FF5520" stroke-width="2" stroke-linecap="round" stroke-linejoin="round"/>
<path d="M33.9036 1.45752L29.5514 4.29328C28.7437 4.80105 27.8943 5.2389 27.0124 5.6021L24.3288 6.61955C23.6037 6.91091 22.3703 7.34718 21.5729 7.56532L19.6145 8.1465C18.6927 8.43924 17.8144 8.85483 17.0032 9.3821L14.9716 10.8366C14.1642 11.3443 13.315 11.7822 12.4334 12.1454L5.83359 14.5449" stroke="#FF5520" stroke-width="2" stroke-linecap="round" stroke-linejoin="round"/>
<path d="M14.3972 3.44746C14.3972 3.44746 13.8965 3.42916 13.7337 3.7434C13.5412 4.11255 13.7261 5.11246 13.5435 5.65552C13.3712 6.19571 13.0253 6.66347 12.5597 6.98569" stroke="#FF5520" stroke-width="2" stroke-linecap="round" stroke-linejoin="round"/>
</svg>
