<svg width="63" height="63" viewBox="0 0 63 63" fill="none" xmlns="http://www.w3.org/2000/svg">
<path d="M59.472 3.46185C57.163 1.1529 54.3848 0 51.134 0H11.7999C8.5491 0 5.7708 1.1529 3.46185 3.46185C1.1529 5.7708 0 8.5491 0 11.7999V51.134C0 54.3848 1.1529 57.163 3.46185 59.472C5.7708 61.7809 8.5491 62.9339 11.7999 62.9339H20.979C21.5775 62.9339 22.0279 62.9118 22.3303 62.8709C22.6822 62.8003 22.9997 62.6127 23.2313 62.3385C23.5305 62.0235 23.6817 61.5668 23.6817 60.9683L23.6596 58.1805C23.647 56.4039 23.6408 54.999 23.6408 53.9595L22.6957 54.1233C22.0972 54.2335 21.3413 54.2808 20.4246 54.2682C19.4692 54.2506 18.5168 54.1547 17.577 53.9815C16.5766 53.7968 15.6348 53.3756 14.8302 52.7531C13.9876 52.1156 13.3591 51.2366 13.0284 50.2331L12.6189 49.288C12.2737 48.5426 11.8401 47.8414 11.3274 47.1996C10.7415 46.4341 10.1462 45.9176 9.5445 45.6435L9.261 45.4387C9.06332 45.2972 8.88351 45.1322 8.7255 44.9473C8.57459 44.7758 8.45035 44.5826 8.35695 44.3741C8.27505 44.1819 8.34435 44.0244 8.5617 43.9016C8.7822 43.7756 9.17595 43.7157 9.7524 43.7157L10.5714 43.8417C11.1164 43.9488 11.7936 44.2764 12.5969 44.8214C13.4097 45.3755 14.0888 46.1041 14.5845 46.9539C15.2145 48.0722 15.9705 48.9258 16.8588 49.5149C17.7471 50.1008 18.6417 50.3969 19.5426 50.3969C20.4435 50.3969 21.2216 50.3276 21.8799 50.1921C22.5166 50.0605 23.1352 49.8532 23.7227 49.5747C23.9684 47.7477 24.6362 46.3365 25.7292 45.3537C24.3129 45.2148 22.9092 44.9684 21.5303 44.6166C20.1845 44.2469 18.8904 43.7104 17.6778 43.0196C16.4091 42.3289 15.2885 41.3956 14.3798 40.2727C13.5072 39.1797 12.789 37.7465 12.2283 35.973C11.6708 34.1964 11.3904 32.1458 11.3904 29.8242C11.3904 26.5199 12.4677 23.7069 14.6255 21.3822C13.6175 18.9 13.712 16.1123 14.9121 13.0284C15.7059 12.7796 16.8809 12.9654 18.437 13.5796C19.9931 14.1939 21.1334 14.7199 21.8579 15.1546C22.5824 15.5956 23.1619 15.9642 23.5998 16.2635C26.1607 15.5508 28.8072 15.1925 31.4654 15.1987C34.1712 15.1987 36.792 15.5547 39.3341 16.2635L40.8902 15.2807C42.0871 14.562 43.3496 13.9587 44.6607 13.4789C46.1097 12.9308 47.2122 12.7827 47.9808 13.0284C49.2093 16.1154 49.3164 18.9 48.3052 21.3853C50.463 23.7069 51.5435 26.5199 51.5435 29.8273C51.5435 32.1489 51.2631 34.2058 50.7024 35.9919C50.1449 37.7811 49.4204 39.2144 48.5321 40.2948C47.6073 41.4032 46.482 42.3276 45.2151 43.0196C43.8921 43.7567 42.6069 44.289 41.3627 44.6166C39.9838 44.9696 38.5801 45.217 37.1637 45.3569C38.5812 46.5854 39.2931 48.5226 39.2931 51.1718V60.9683C39.2931 61.4313 39.3592 61.8061 39.4978 62.0928C39.5616 62.2309 39.6524 62.3548 39.765 62.4571C39.8775 62.5593 40.0095 62.6379 40.153 62.6881C40.4554 62.7952 40.7201 62.8646 40.9532 62.8898C41.1863 62.9213 41.5202 62.9307 41.9549 62.9307H51.134C54.3848 62.9307 57.163 61.7778 59.472 59.4689C61.7778 57.1631 62.9339 54.3816 62.9339 51.1308V11.7999C62.9339 8.5491 61.7778 5.7708 59.4689 3.46185H59.472Z" fill="#002539"/>
</svg>
