<svg width="63" height="63" viewBox="0 0 63 63" fill="none" xmlns="http://www.w3.org/2000/svg">
<path fill-rule="evenodd" clip-rule="evenodd" d="M7.7908e-07 5.26337C7.7908e-07 3.86744 0.554532 2.52868 1.5416 1.54161C2.52868 0.554538 3.86743 7.01681e-06 5.26336 7.01681e-06H57.7309C58.4227 -0.00112284 59.1079 0.134205 59.7473 0.398243C60.3867 0.662281 60.9678 1.04984 61.4572 1.53874C61.9466 2.02764 62.3348 2.60827 62.5996 3.2474C62.8643 3.88652 63.0004 4.57159 63 5.26337V57.7309C63.0007 58.4228 62.8651 59.1081 62.6007 59.7475C62.3364 60.387 61.9485 60.968 61.4594 61.4574C60.9703 61.9468 60.3895 62.3349 59.7502 62.5996C59.1109 62.8643 58.4257 63.0004 57.7338 63H5.26336C4.57193 63 3.88727 62.8638 3.2485 62.5991C2.60973 62.3344 2.02938 61.9464 1.54059 61.4574C1.05181 60.9683 0.664169 60.3878 0.399828 59.7489C0.135488 59.1099 -0.00037541 58.4252 7.7908e-07 57.7338V5.26337ZM24.9365 24.0202H33.4673V28.3042C34.6987 25.8415 37.8487 23.625 42.5823 23.625C51.6571 23.625 53.8077 28.5304 53.8077 37.5308V54.2029H44.624V39.5812C44.624 34.4553 43.3927 31.563 40.2656 31.563C35.9272 31.563 34.1231 34.6815 34.1231 39.5812V54.2029H24.9365V24.0202ZM9.18655 53.8106H18.3731V23.625H9.18655V53.8077V53.8106ZM19.6875 13.7798C19.7048 14.5664 19.5649 15.3485 19.2758 16.0802C18.9868 16.812 18.5545 17.4786 18.0043 18.041C17.4542 18.6034 16.7972 19.0503 16.072 19.3553C15.3468 19.6604 14.568 19.8176 13.7812 19.8176C12.9945 19.8176 12.2157 19.6604 11.4905 19.3553C10.7653 19.0503 10.1083 18.6034 9.55815 18.041C9.00799 17.4786 8.57571 16.812 8.28668 16.0802C7.99764 15.3485 7.85768 14.5664 7.875 13.7798C7.909 12.2359 8.54619 10.7667 9.65013 9.68679C10.7541 8.6069 12.237 8.0022 13.7812 8.0022C15.3255 8.0022 16.8084 8.6069 17.9124 9.68679C19.0163 10.7667 19.6535 12.2359 19.6875 13.7798V13.7798Z" fill="#002539"/>
</svg>
