<svg width="769" height="295" viewBox="0 0 769 295" fill="none" xmlns="http://www.w3.org/2000/svg">
<path d="M85.84 194.16C93.3067 194.16 102 187.493 111.92 174.16C115.44 153.787 118 141.04 119.6 135.92C122.907 124.72 127.493 119.12 133.36 119.12C137.2 119.12 139.12 121.413 139.12 126C139.12 128.56 138.533 131.76 137.36 135.6C134.48 145.413 129.2 156.187 121.52 167.92C118.533 192.453 114.48 211.013 109.36 223.6C103.92 236.933 97.3067 246.747 89.52 253.04C85.2533 256.56 80.08 259.44 74 261.68C67.92 263.92 61.2533 265.04 54 265.04C38.1067 265.04 26.96 259.547 20.56 248.56C17.4667 243.227 15.92 238.107 15.92 233.2C15.92 228.4 16.5067 224.08 17.68 220.24C20.4533 210.64 25.7333 203.867 33.52 199.92C37.2533 198.107 41.2533 197.2 45.52 197.2C56.8267 197.2 64.56 201.573 68.72 210.32C70.5333 214.16 71.44 217.84 71.44 221.36C71.44 224.88 70.8 228.24 69.52 231.44C66.7467 238.8 62.2133 242.48 55.92 242.48C54.96 242.48 54.1067 242.213 53.36 241.68C52.6133 241.147 52.0267 240.4 51.6 239.44C56.4 239.44 60.1333 236.187 62.8 229.68C64.08 226.48 64.72 223.227 64.72 219.92C64.72 216.72 63.9733 213.413 62.48 210C59.6 203.493 53.7867 200.24 45.04 200.24C36.2933 200.24 29.4133 204.453 24.4 212.88C20.9867 218.533 19.28 224.453 19.28 230.64C19.28 233.2 19.6 235.813 20.24 238.48C22.48 248.507 28.24 255.28 37.52 258.8C41.68 260.4 46.4267 261.2 51.76 261.2C57.2 261.2 62.2667 260.347 66.96 258.64C71.76 257.04 75.92 254.907 79.44 252.24C83.0667 249.573 86.3733 246.16 89.36 242C92.3467 237.84 94.8533 233.627 96.88 229.36C99.0133 225.093 100.987 220.133 102.8 214.48C105.467 205.733 108.027 195.013 110.48 182.32C100.987 192.88 92.8267 198.16 86 198.16C72.7733 198.16 66.16 191.013 66.16 176.72C66.16 170.747 67.3333 164.027 69.68 156.56C72.1333 149.093 74.7467 142.373 77.52 136.4C80.4 130.32 83.0133 123.44 85.36 115.76C87.8133 107.973 89.04 100.667 89.04 93.84C89.04 87.0133 87.0667 81.52 83.12 77.36C79.1733 73.2 73.7333 71.12 66.8 71.12C56.1333 71.12 47.44 76.56 40.72 87.44C35.4933 96.08 32.88 105.2 32.88 114.8C32.88 126.96 36.4533 134.693 43.6 138C45.7333 138.96 48.0267 139.44 50.48 139.44C58.6933 139.44 64.9333 134.853 69.2 125.68C69.4133 125.253 69.7333 125.04 70.16 125.04C70.6933 124.933 71.12 125.04 71.44 125.36C71.8667 125.68 71.9733 126.053 71.76 126.48C69.7333 131.493 66.9067 135.547 63.28 138.64C59.6533 141.627 55.3867 143.12 50.48 143.12C40.88 143.12 34.3733 138.267 30.96 128.56C29.5733 124.4 28.88 119.707 28.88 114.48C28.88 109.253 30 103.387 32.24 96.88C36.4 84.6133 43.0667 75.9733 52.24 70.96C56.8267 68.5067 61.68 67.28 66.8 67.28C76.6133 67.28 84.1333 70.64 89.36 77.36C94.5867 83.9733 97.2 92.7733 97.2 103.76C97.2 111.76 95.44 120.773 91.92 130.8C88.5067 140.72 85.04 150.267 81.52 159.44C78.1067 168.613 76.4 176.187 76.4 182.16C76.4 190.16 79.5467 194.16 85.84 194.16ZM132.56 124.24C129.893 124.24 127.92 126.853 126.64 132.08C125.36 137.307 124.027 145.84 122.64 157.68C130.32 144.133 134.32 134.213 134.64 127.92C134.64 125.573 133.947 124.347 132.56 124.24ZM169.437 186.48C171.891 186.48 173.117 188.133 173.117 191.44C173.117 194.747 171.517 197.413 168.318 199.44C166.717 200.507 165.331 201.04 164.157 201.04C162.451 201.04 161.384 200.347 160.957 198.96C161.917 198.96 162.611 197.947 163.038 195.92C163.464 193.787 164.104 191.707 164.957 189.68C165.918 187.547 167.411 186.48 169.437 186.48ZM290.723 194.16C298.189 194.16 306.883 187.493 316.803 174.16C320.323 153.787 322.883 141.04 324.483 135.92C327.789 124.72 332.376 119.12 338.243 119.12C342.083 119.12 344.003 121.413 344.003 126C344.003 128.56 343.416 131.76 342.243 135.6C339.363 145.413 334.083 156.187 326.403 167.92C323.416 192.453 319.363 211.013 314.243 223.6C308.803 236.933 302.189 246.747 294.403 253.04C290.136 256.56 284.963 259.44 278.883 261.68C272.803 263.92 266.136 265.04 258.883 265.04C242.989 265.04 231.843 259.547 225.443 248.56C222.349 243.227 220.803 238.107 220.803 233.2C220.803 228.4 221.389 224.08 222.563 220.24C225.336 210.64 230.616 203.867 238.403 199.92C242.136 198.107 246.136 197.2 250.403 197.2C261.709 197.2 269.443 201.573 273.603 210.32C275.416 214.16 276.323 217.84 276.323 221.36C276.323 224.88 275.683 228.24 274.403 231.44C271.629 238.8 267.096 242.48 260.803 242.48C259.843 242.48 258.989 242.213 258.243 241.68C257.496 241.147 256.909 240.4 256.483 239.44C261.283 239.44 265.016 236.187 267.683 229.68C268.963 226.48 269.603 223.227 269.603 219.92C269.603 216.72 268.856 213.413 267.363 210C264.483 203.493 258.669 200.24 249.923 200.24C241.176 200.24 234.296 204.453 229.283 212.88C225.869 218.533 224.163 224.453 224.163 230.64C224.163 233.2 224.483 235.813 225.123 238.48C227.363 248.507 233.123 255.28 242.403 258.8C246.563 260.4 251.309 261.2 256.643 261.2C262.083 261.2 267.149 260.347 271.843 258.64C276.643 257.04 280.803 254.907 284.323 252.24C287.949 249.573 291.256 246.16 294.243 242C297.229 237.84 299.736 233.627 301.763 229.36C303.896 225.093 305.869 220.133 307.683 214.48C310.349 205.733 312.909 195.013 315.363 182.32C305.869 192.88 297.709 198.16 290.883 198.16C277.656 198.16 271.043 191.013 271.043 176.72C271.043 170.747 272.216 164.027 274.563 156.56C277.016 149.093 279.629 142.373 282.403 136.4C285.283 130.32 287.896 123.44 290.243 115.76C292.696 107.973 293.923 100.667 293.923 93.84C293.923 87.0133 291.949 81.52 288.003 77.36C284.056 73.2 278.616 71.12 271.683 71.12C261.016 71.12 252.323 76.56 245.603 87.44C240.376 96.08 237.763 105.2 237.763 114.8C237.763 126.96 241.336 134.693 248.483 138C250.616 138.96 252.909 139.44 255.363 139.44C263.576 139.44 269.816 134.853 274.083 125.68C274.296 125.253 274.616 125.04 275.043 125.04C275.576 124.933 276.003 125.04 276.323 125.36C276.749 125.68 276.856 126.053 276.643 126.48C274.616 131.493 271.789 135.547 268.163 138.64C264.536 141.627 260.269 143.12 255.363 143.12C245.763 143.12 239.256 138.267 235.843 128.56C234.456 124.4 233.763 119.707 233.763 114.48C233.763 109.253 234.883 103.387 237.123 96.88C241.283 84.6133 247.949 75.9733 257.123 70.96C261.709 68.5067 266.563 67.28 271.683 67.28C281.496 67.28 289.016 70.64 294.243 77.36C299.469 83.9733 302.083 92.7733 302.083 103.76C302.083 111.76 300.323 120.773 296.803 130.8C293.389 140.72 289.923 150.267 286.403 159.44C282.989 168.613 281.283 176.187 281.283 182.16C281.283 190.16 284.429 194.16 290.723 194.16ZM337.443 124.24C334.776 124.24 332.803 126.853 331.523 132.08C330.243 137.307 328.909 145.84 327.523 157.68C335.203 144.133 339.203 134.213 339.523 127.92C339.523 125.573 338.829 124.347 337.443 124.24ZM362.8 198.16C354.374 198.16 350.16 191.813 350.16 179.12C350.16 171.76 352.08 163.707 355.92 154.96C361.254 143.12 368.027 135.387 376.24 131.76C379.12 130.587 382 130 384.88 130C387.867 130 390.214 130.853 391.92 132.56C393.627 134.267 394.48 136.187 394.48 138.32C394.48 139.28 393.947 139.76 392.88 139.76C391.92 139.653 391.44 139.12 391.44 138.16C391.44 137.2 390.907 136.347 389.84 135.6C388.88 134.747 387.44 134.32 385.52 134.32C378.8 134.32 372.72 140.347 367.28 152.4C362.16 163.6 359.6 174.213 359.6 184.24C359.6 190.427 360.934 193.52 363.6 193.52C366.374 193.52 369.68 191.227 373.52 186.64C377.467 181.947 381.094 176.507 384.4 170.32C391.547 157.307 395.76 148.933 397.04 145.2C398.32 141.467 399.707 139.6 401.2 139.6C403.867 139.6 405.2 141.84 405.2 146.32C405.2 147.707 405.04 149.307 404.72 151.12C401.2 168.187 399.28 178.053 398.96 180.72C398.747 183.387 398.64 185.307 398.64 186.48C398.64 191.6 399.867 194.16 402.32 194.16C405.094 194.16 408.987 190.48 414 183.12C419.014 175.76 423.334 168.4 426.96 161.04L432.4 150H436.72C436.08 151.28 435.227 153.04 434.16 155.28C433.2 157.413 431.227 161.307 428.24 166.96C425.254 172.507 422.374 177.413 419.6 181.68C416.934 185.947 413.894 189.84 410.48 193.36C407.174 196.773 404.294 198.48 401.84 198.48C393.947 198.48 390 192.72 390 181.2C390 177.36 390.427 172.88 391.28 167.76H390.16C379.28 188.027 370.16 198.16 362.8 198.16ZM451.828 112.56H452.148C453.108 112.667 453.855 113.093 454.388 113.84C454.922 114.587 455.188 115.387 455.188 116.24C455.188 116.987 454.442 118.64 452.948 121.2C451.562 123.76 450.868 125.84 450.868 127.44C450.868 128.933 451.082 130.373 451.508 131.76C451.935 133.04 453.268 136.24 455.508 141.36C460.415 152.56 462.868 162.587 462.868 171.44C462.868 180.187 460.468 187.44 455.668 193.2C450.975 198.96 445.322 201.84 438.708 201.84C432.202 201.84 428.948 197.893 428.948 190C428.948 182 431.775 173.467 437.428 164.4C440.735 159.173 444.308 155.227 448.148 152.56C449.215 151.813 449.908 151.973 450.228 153.04C450.655 154.107 450.442 154.96 449.588 155.6C443.402 160.08 438.602 167.173 435.188 176.88C432.095 185.627 431.775 191.707 434.228 195.12C435.082 196.4 436.308 197.04 437.908 197.04C442.602 197.04 446.282 193.893 448.948 187.6C451.615 181.307 452.948 173.467 452.948 164.08C452.948 155.973 451.988 148.453 450.068 141.52C448.148 134.587 447.082 130.587 446.868 129.52C443.668 135.6 440.202 142.427 436.468 150H432.148C438.228 137.947 442.922 128.88 446.228 122.8C446.655 115.973 448.522 112.56 451.828 112.56ZM480.53 198C477.543 198 476.05 195.707 476.05 191.12C476.05 188.667 479.036 170.8 485.01 137.52C485.33 135.28 486.29 134.16 487.89 134.16C489.81 134.16 491.25 135.547 492.21 138.32C492.743 139.813 493.01 141.467 493.01 143.28C493.01 144.987 492.796 146.853 492.37 148.88L489.97 161.04H490.93C500.316 139.92 509.383 129.36 518.13 129.36C521.116 129.36 523.463 130.427 525.17 132.56C526.983 134.693 527.89 137.253 527.89 140.24C527.89 145.787 527.036 152.72 525.33 161.04H525.97C535.036 141.307 543.943 131.44 552.69 131.44C555.57 131.44 557.916 132.507 559.73 134.64C561.543 136.773 562.45 139.6 562.45 143.12C562.45 146.64 561.063 154.107 558.29 165.52C555.623 176.933 554.29 184.987 554.29 189.68C554.29 196.613 555.57 200.08 558.13 200.08C558.13 200.827 557.65 201.573 556.69 202.32C555.73 203.067 554.61 203.44 553.33 203.44C547.143 203.44 544.05 198.587 544.05 188.88C544.05 182.8 545.596 174.053 548.69 162.64C551.783 151.12 553.33 143.76 553.33 140.56C553.33 137.253 552.263 135.6 550.13 135.6C546.183 135.6 541.543 140.4 536.21 150C530.983 159.493 526.77 168.613 523.57 177.36C520.476 186.107 518.663 191.76 518.13 194.32C517.596 196.773 516.636 198 515.25 198C512.263 198 510.77 195.707 510.77 191.12C510.77 189.413 511.676 183.387 513.49 173.04C517.01 154.053 518.77 142.747 518.77 139.12C518.77 135.387 517.703 133.52 515.57 133.52C512.69 133.52 509.33 136.507 505.49 142.48C501.65 148.347 498.183 155.173 495.09 162.96C488.37 179.387 484.423 190 483.25 194.8C482.823 196.933 481.916 198 480.53 198ZM598.682 102.16C601.136 102.16 602.362 103.813 602.362 107.12C602.362 110.427 600.762 113.093 597.562 115.12C595.962 116.187 594.576 116.72 593.403 116.72C591.696 116.72 590.682 116.187 590.362 115.12L590.202 114.64C591.162 114.64 591.856 113.627 592.282 111.6C592.709 109.467 593.349 107.387 594.202 105.36C595.162 103.227 596.656 102.16 598.682 102.16ZM588.442 194.16C591.216 194.16 595.109 190.48 600.122 183.12C605.136 175.76 609.456 168.4 613.083 161.04L618.522 150H622.842C622.202 151.28 621.349 153.04 620.282 155.28C619.322 157.413 617.349 161.307 614.362 166.96C611.376 172.507 608.496 177.413 605.722 181.68C603.056 185.947 600.016 189.84 596.602 193.36C593.296 196.773 590.416 198.48 587.962 198.48C580.069 198.48 576.123 193.36 576.123 183.12C576.123 175.44 578.309 162.96 582.682 145.68C583.109 143.867 583.429 142.48 583.643 141.52C583.962 140.56 584.282 139.333 584.602 137.84C584.922 136.24 585.242 134.8 585.562 133.52C586.096 131.28 587.056 130.16 588.442 130.16C590.362 130.16 591.749 131.547 592.602 134.32C593.029 135.6 593.242 137.147 593.242 138.96C593.242 140.773 593.029 142.693 592.602 144.72C592.176 146.64 591.482 149.52 590.522 153.36C589.562 157.2 588.816 160.347 588.282 162.8C587.749 165.253 587.162 168.24 586.522 171.76C585.349 177.627 584.762 182.853 584.762 187.44C584.762 191.92 585.989 194.16 588.442 194.16ZM615.881 198C612.895 198 611.401 195.707 611.401 191.12C611.401 188.667 614.388 170.8 620.361 137.52C620.681 135.28 621.641 134.16 623.241 134.16C625.161 134.16 626.601 135.547 627.561 138.32C628.095 139.813 628.361 141.467 628.361 143.28C628.361 144.987 628.148 146.853 627.721 148.88L625.161 161.68H626.121C635.721 140.133 644.895 129.36 653.641 129.36C657.055 129.36 659.668 130.427 661.481 132.56C663.295 134.587 664.201 137.413 664.201 141.04C664.201 144.667 662.761 152.507 659.881 164.56C657.001 176.613 655.561 184.987 655.561 189.68C655.561 196.613 656.841 200.08 659.401 200.08C659.401 200.827 658.921 201.573 657.961 202.32C657.001 203.067 655.881 203.44 654.601 203.44C648.415 203.44 645.321 198.587 645.321 188.88C645.321 182.907 646.921 173.893 650.121 161.84C653.428 149.68 655.081 141.947 655.081 138.64C655.081 135.227 653.748 133.52 651.081 133.52C647.241 133.52 642.601 138.533 637.161 148.56C631.828 158.587 627.508 168.187 624.201 177.36C621.001 186.427 619.135 192.133 618.601 194.48C618.175 196.827 617.268 198 615.881 198ZM687.32 174.64C687.32 187.547 691.907 194 701.08 194C704.494 194 708.067 192.507 711.8 189.52C715.64 186.427 719.107 182.747 722.2 178.48C729.027 168.667 733.827 160.667 736.6 154.48L738.68 150H743C741.187 154.267 738.52 159.547 735 165.84C731.48 172.027 728.12 177.253 724.92 181.52C721.72 185.787 717.934 189.68 713.56 193.2C709.187 196.613 705.027 198.32 701.08 198.32C685.294 198.32 677.4 189.467 677.4 171.76C677.4 163.547 679.8 155.333 684.6 147.12C691.214 135.707 699.374 130 709.08 130C715.907 130 719.32 133.733 719.32 141.2C719.32 146.747 717.187 152.507 712.92 158.48C706.947 166.587 699.96 170.693 691.96 170.8C690.787 170.8 690.04 170.267 689.72 169.2L689.56 168.56C695.107 168.56 700.387 164.933 705.4 157.68C710.52 150.32 713.08 144.187 713.08 139.28C713.08 135.973 711.8 134.32 709.24 134.32C703.587 134.32 698.307 139.28 693.4 149.2C689.347 157.627 687.32 166.107 687.32 174.64Z" fill="#002539"/>
<path d="M111.92 174.16L115.129 176.548L115.699 175.782L115.862 174.841L111.92 174.16ZM119.6 135.92L123.418 137.113L123.427 137.083L123.436 137.053L119.6 135.92ZM137.36 135.6L133.535 134.431L133.528 134.452L133.522 134.474L137.36 135.6ZM121.52 167.92L118.173 165.729L117.662 166.51L117.549 167.437L121.52 167.92ZM109.36 223.6L113.064 225.111L113.065 225.107L109.36 223.6ZM89.52 253.04L87.0057 249.929L86.99 249.942L86.9745 249.955L89.52 253.04ZM74 261.68L75.3828 265.433L75.3828 265.433L74 261.68ZM20.56 248.56L17.0999 250.567L17.1037 250.573L20.56 248.56ZM17.68 220.24L21.5054 221.409L21.5144 221.38L21.5229 221.35L17.68 220.24ZM33.52 199.92L31.7724 196.322L31.7419 196.337L31.7116 196.352L33.52 199.92ZM68.72 210.32L72.337 208.612L72.3323 208.602L68.72 210.32ZM69.52 231.44L65.8061 229.954L65.7911 229.992L65.7769 230.03L69.52 231.44ZM53.36 241.68L51.035 244.935L51.035 244.935L53.36 241.68ZM51.6 239.44V235.44H45.445L47.9448 241.065L51.6 239.44ZM62.8 229.68L66.5012 231.197L66.5076 231.181L66.5139 231.166L62.8 229.68ZM62.48 210L66.1446 208.397L66.1412 208.389L66.1377 208.381L62.48 210ZM24.4 212.88L27.8243 214.947L27.831 214.936L27.8376 214.925L24.4 212.88ZM20.24 238.48L24.1438 237.608L24.1369 237.577L24.1295 237.547L20.24 238.48ZM37.52 258.8L38.9559 255.067L38.9473 255.063L38.9386 255.06L37.52 258.8ZM66.96 258.64L65.6951 254.845L65.6438 254.862L65.593 254.881L66.96 258.64ZM79.44 252.24L77.0704 249.017L77.0474 249.034L77.0246 249.052L79.44 252.24ZM89.36 242L92.6093 244.333L92.6093 244.333L89.36 242ZM96.88 229.36L93.3023 227.571L93.2842 227.607L93.2669 227.644L96.88 229.36ZM102.8 214.48L106.609 215.702L106.618 215.674L106.626 215.647L102.8 214.48ZM110.48 182.32L114.407 183.079L117.143 168.925L107.505 179.646L110.48 182.32ZM69.68 156.56L65.8799 155.311L65.8718 155.336L65.864 155.361L69.68 156.56ZM77.52 136.4L73.905 134.688L73.8985 134.702L73.892 134.716L77.52 136.4ZM85.36 115.76L81.5449 114.558L81.5397 114.575L81.5346 114.591L85.36 115.76ZM83.12 77.36L80.2181 80.113L80.2181 80.1131L83.12 77.36ZM40.72 87.44L37.3168 85.338L37.3071 85.3538L37.2975 85.3696L40.72 87.44ZM43.6 138L41.9203 141.63L41.9394 141.639L41.9585 141.648L43.6 138ZM69.2 125.68L65.6223 123.891L65.597 123.942L65.5731 123.993L69.2 125.68ZM70.16 125.04V129.04H70.5561L70.9445 128.962L70.16 125.04ZM71.44 125.36L68.6116 128.188L68.8126 128.389L69.04 128.56L71.44 125.36ZM71.76 126.48L68.1823 124.691L68.1112 124.833L68.0516 124.981L71.76 126.48ZM63.28 138.64L65.8228 141.728L65.8495 141.706L65.8758 141.683L63.28 138.64ZM30.96 128.56L27.1653 129.825L27.1756 129.856L27.1865 129.887L30.96 128.56ZM32.24 96.88L36.0222 98.1821L36.0251 98.1734L36.0281 98.1647L32.24 96.88ZM52.24 70.96L50.3534 67.4329L50.3375 67.4414L50.3217 67.45L52.24 70.96ZM89.36 77.36L86.2026 79.8158L86.2121 79.828L86.2218 79.8402L89.36 77.36ZM91.92 130.8L88.1458 129.475L88.1417 129.487L88.1376 129.499L91.92 130.8ZM81.52 159.44L77.7855 158.007L77.7782 158.026L77.7711 158.045L81.52 159.44ZM132.56 124.24L132.867 120.252L132.714 120.24H132.56V124.24ZM126.64 132.08L122.755 131.129L122.755 131.129L126.64 132.08ZM122.64 157.68L118.667 157.215L126.12 159.653L122.64 157.68ZM134.64 127.92L138.635 128.123L138.64 128.022V127.92H134.64ZM85.84 198.16C90.7804 198.16 95.6627 195.962 100.394 192.334C105.144 188.692 110.05 183.375 115.129 176.548L108.711 171.772C103.87 178.279 99.4693 182.962 95.5259 185.986C91.5639 189.024 88.3662 190.16 85.84 190.16V198.16ZM115.862 174.841C119.397 154.377 121.914 141.926 123.418 137.113L115.782 134.727C114.086 140.154 111.483 153.197 107.978 173.479L115.862 174.841ZM123.436 137.053C125.02 131.688 126.804 128.065 128.615 125.855C130.343 123.744 131.903 123.12 133.36 123.12V115.12C128.951 115.12 125.284 117.296 122.425 120.785C119.649 124.175 117.487 128.952 115.764 134.787L123.436 137.053ZM133.36 123.12C133.93 123.12 134.249 123.206 134.4 123.266C134.527 123.317 134.575 123.362 134.613 123.408C134.722 123.537 135.12 124.167 135.12 126H143.12C143.12 123.246 142.558 120.436 140.747 118.272C138.822 115.973 136.102 115.12 133.36 115.12V123.12ZM135.12 126C135.12 128.005 134.65 130.781 133.535 134.431L141.185 136.769C142.417 132.739 143.12 129.115 143.12 126H135.12ZM133.522 134.474C130.785 143.799 125.712 154.212 118.173 165.729L124.867 170.111C132.688 158.161 138.175 147.027 141.198 136.726L133.522 134.474ZM117.549 167.437C114.577 191.855 110.574 209.999 105.655 222.093L113.065 225.107C118.386 212.028 122.49 193.051 125.491 168.403L117.549 167.437ZM105.656 222.089C100.367 235.054 94.0871 244.206 87.0057 249.929L92.0343 256.151C100.526 249.288 107.473 238.813 113.064 225.111L105.656 222.089ZM86.9745 249.955C83.1088 253.144 78.3456 255.816 72.6172 257.927L75.3828 265.433C81.8144 263.064 87.3978 259.976 92.0655 256.125L86.9745 249.955ZM72.6172 257.927C67.0296 259.985 60.8374 261.04 54 261.04V269.04C61.6692 269.04 68.8104 267.855 75.3828 265.433L72.6172 257.927ZM54 261.04C39.1164 261.04 29.5134 255.983 24.0163 246.547L17.1037 250.573C24.4066 263.11 37.0969 269.04 54 269.04V261.04ZM24.0201 246.553C21.1909 241.675 19.92 237.243 19.92 233.2H11.92C11.92 238.971 13.7424 244.778 17.0999 250.567L24.0201 246.553ZM19.92 233.2C19.92 228.721 20.4678 224.805 21.5054 221.409L13.8546 219.071C12.5455 223.355 11.92 228.079 11.92 233.2H19.92ZM21.5229 221.35C24.0372 212.647 28.6784 206.858 35.3284 203.488L31.7116 196.352C22.7883 200.875 16.8695 208.633 13.8371 219.13L21.5229 221.35ZM35.2676 203.518C38.4408 201.977 41.8413 201.2 45.52 201.2V193.2C40.6654 193.2 36.0659 194.237 31.7724 196.322L35.2676 203.518ZM45.52 201.2C50.6678 201.2 54.7074 202.195 57.831 203.962C60.9166 205.707 63.3476 208.337 65.1077 212.038L72.3323 208.602C69.9324 203.556 66.4167 199.627 61.769 196.998C57.1593 194.391 51.6789 193.2 45.52 193.2V201.2ZM65.103 212.028C66.7154 215.442 67.44 218.54 67.44 221.36H75.44C75.44 217.14 74.3513 212.878 72.337 208.612L65.103 212.028ZM67.44 221.36C67.44 224.382 66.893 227.237 65.8061 229.954L73.2339 232.926C74.707 229.243 75.44 225.378 75.44 221.36H67.44ZM65.7769 230.03C64.5566 233.268 63.0765 235.35 61.519 236.614C60.0224 237.829 58.2252 238.48 55.92 238.48V246.48C59.9081 246.48 63.5243 245.291 66.561 242.826C69.5369 240.41 71.7101 236.972 73.2631 232.85L65.7769 230.03ZM55.92 238.48C55.8148 238.48 55.7661 238.466 55.7531 238.462C55.7418 238.459 55.7224 238.452 55.6849 238.425L51.035 244.935C52.4927 245.976 54.1673 246.48 55.92 246.48V238.48ZM55.685 238.425C55.5993 238.364 55.4347 238.219 55.2552 237.815L47.9448 241.065C48.6187 242.581 49.6273 243.929 51.035 244.935L55.685 238.425ZM51.6 243.44C58.7539 243.44 63.5535 238.389 66.5012 231.197L59.0988 228.163C56.7132 233.984 54.0461 235.44 51.6 235.44V243.44ZM66.5139 231.166C67.9748 227.513 68.72 223.757 68.72 219.92H60.72C60.72 222.696 60.1852 225.447 59.0861 228.194L66.5139 231.166ZM68.72 219.92C68.72 216.085 67.8232 212.233 66.1446 208.397L58.8154 211.603C60.1235 214.593 60.72 217.355 60.72 219.92H68.72ZM66.1377 208.381C64.3726 204.393 61.6288 201.269 57.9134 199.189C54.2517 197.14 49.8898 196.24 45.04 196.24V204.24C48.9369 204.24 51.8549 204.966 54.0066 206.171C56.1045 207.345 57.7074 209.1 58.8223 211.619L66.1377 208.381ZM45.04 196.24C34.6897 196.24 26.5922 201.372 20.9624 210.835L27.8376 214.925C32.2345 207.535 37.897 204.24 45.04 204.24V196.24ZM20.9757 210.813C17.2122 217.046 15.28 223.675 15.28 230.64H23.28C23.28 225.232 24.7612 220.021 27.8243 214.947L20.9757 210.813ZM15.28 230.64C15.28 233.536 15.6423 236.463 16.3505 239.413L24.1295 237.547C23.5577 235.164 23.28 232.864 23.28 230.64H15.28ZM16.3362 239.352C18.8572 250.636 25.5112 258.523 36.1014 262.54L38.9386 255.06C30.9688 252.037 26.1028 246.377 24.1438 237.608L16.3362 239.352ZM36.0841 262.533C40.7827 264.341 46.0299 265.2 51.76 265.2V257.2C46.8234 257.2 42.5773 256.459 38.9559 255.067L36.0841 262.533ZM51.76 265.2C57.6246 265.2 63.158 264.279 68.327 262.399L65.593 254.881C61.3753 256.415 56.7754 257.2 51.76 257.2V265.2ZM68.2249 262.435C73.3796 260.717 77.941 258.394 81.8554 255.428L77.0246 249.052C73.899 251.419 70.1404 253.363 65.6951 254.845L68.2249 262.435ZM81.8096 255.463C85.8173 252.516 89.411 248.788 92.6093 244.333L86.1107 239.667C83.3356 243.532 80.3161 246.631 77.0704 249.017L81.8096 255.463ZM92.6093 244.333C95.7239 239.995 98.3557 235.576 100.493 231.076L93.2669 227.644C91.351 231.677 88.9695 235.685 86.1107 239.667L92.6093 244.333ZM100.458 231.149C102.701 226.661 104.747 221.505 106.609 215.702L98.9911 213.258C97.2258 218.762 95.3253 223.525 93.3023 227.571L100.458 231.149ZM106.626 215.647C109.346 206.724 111.937 195.859 114.407 183.079L106.553 181.561C104.116 194.168 101.587 204.743 98.9739 213.313L106.626 215.647ZM107.505 179.646C102.897 184.772 98.7489 188.459 95.067 190.842C91.3726 193.232 88.3806 194.16 86 194.16V202.16C90.4461 202.16 94.9474 200.448 99.413 197.558C103.891 194.661 108.57 190.428 113.455 184.994L107.505 179.646ZM86 194.16C80.0863 194.16 76.3633 192.577 74.0559 190.083C71.6942 187.531 70.16 183.324 70.16 176.72H62.16C62.16 184.41 63.9325 190.922 68.1841 195.517C72.49 200.17 78.687 202.16 86 202.16V194.16ZM70.16 176.72C70.16 171.257 71.2357 164.951 73.496 157.759L65.864 155.361C63.431 163.102 62.16 170.236 62.16 176.72H70.16ZM73.4801 157.809C75.8937 150.463 78.4517 143.892 81.148 138.084L73.892 134.716C71.0417 140.855 68.373 147.724 65.8799 155.311L73.4801 157.809ZM81.135 138.112C84.1123 131.827 86.7924 124.76 89.1854 116.929L81.5346 114.591C79.2343 122.12 76.6877 128.813 73.905 134.688L81.135 138.112ZM89.1751 116.962C91.7277 108.86 93.04 101.145 93.04 93.84H85.04C85.04 100.188 83.8989 107.086 81.5449 114.558L89.1751 116.962ZM93.04 93.84C93.04 86.1966 90.8047 79.6483 86.0219 74.607L80.2181 80.1131C83.3287 83.3917 85.04 87.8301 85.04 93.84H93.04ZM86.0219 74.607C81.1652 69.4878 74.5836 67.12 66.8 67.12V75.12C72.883 75.12 77.1815 76.9122 80.2181 80.113L86.0219 74.607ZM66.8 67.12C54.4529 67.12 44.5965 73.5518 37.3168 85.338L44.1232 89.542C50.2835 79.5682 57.8138 75.12 66.8 75.12V67.12ZM37.2975 85.3696C31.7135 94.6003 28.88 104.432 28.88 114.8H36.88C36.88 105.968 39.2732 97.5597 44.1425 89.5104L37.2975 85.3696ZM28.88 114.8C28.88 127.57 32.6636 137.347 41.9203 141.63L45.2797 134.37C40.2431 132.039 36.88 126.35 36.88 114.8H28.88ZM41.9585 141.648C44.633 142.851 47.4889 143.44 50.48 143.44V135.44C48.5644 135.44 46.8336 135.069 45.2415 134.352L41.9585 141.648ZM50.48 143.44C55.3841 143.44 59.8394 142.053 63.689 139.223C67.4916 136.428 70.4942 132.382 72.8269 127.367L65.5731 123.993C63.6391 128.151 61.3884 130.985 58.951 132.777C56.5606 134.534 53.7893 135.44 50.48 135.44V143.44ZM72.7777 127.469C72.6471 127.73 72.3617 128.166 71.8188 128.528C71.2508 128.907 70.6466 129.04 70.16 129.04V121.04C69.2467 121.04 68.2692 121.28 67.3812 121.872C66.5183 122.447 65.9662 123.203 65.6223 123.891L72.7777 127.469ZM70.9445 128.962C70.7647 128.998 70.3906 129.041 69.9099 128.921C69.3988 128.793 68.9486 128.525 68.6116 128.188L74.2684 122.532C72.8027 121.066 70.9163 120.81 69.3755 121.118L70.9445 128.962ZM69.04 128.56C68.8117 128.389 68.2557 127.895 67.9939 126.979C67.7128 125.995 67.9487 125.158 68.1823 124.691L75.3377 128.269C75.7847 127.375 76.0738 126.138 75.6861 124.781C75.3176 123.491 74.495 122.651 73.84 122.16L69.04 128.56ZM68.0516 124.981C66.2334 129.478 63.7587 132.974 60.6842 135.597L65.8758 141.683C70.0546 138.119 73.2333 133.508 75.4684 127.979L68.0516 124.981ZM60.7372 135.552C57.8604 137.921 54.5035 139.12 50.48 139.12V147.12C56.2698 147.12 61.4463 145.332 65.8228 141.728L60.7372 135.552ZM50.48 139.12C46.3794 139.12 43.2342 138.096 40.7916 136.274C38.3266 134.435 36.2469 131.537 34.7335 127.233L27.1865 129.887C29.0864 135.29 31.9668 139.672 36.0084 142.686C40.0724 145.718 44.9806 147.12 50.48 147.12V139.12ZM34.7547 127.295C33.5272 123.613 32.88 119.357 32.88 114.48H24.88C24.88 120.056 25.6194 125.187 27.1653 129.825L34.7547 127.295ZM32.88 114.48C32.88 109.812 33.8834 104.395 36.0222 98.1821L28.4578 95.578C26.1166 102.379 24.88 108.695 24.88 114.48H32.88ZM36.0281 98.1647C39.9465 86.6104 46.063 78.8942 54.1583 74.47L50.3217 67.45C40.0703 73.0525 32.8535 82.6162 28.4519 95.5953L36.0281 98.1647ZM54.1266 74.4871C58.1425 72.3391 62.349 71.28 66.8 71.28V63.28C61.011 63.28 55.5108 64.6743 50.3534 67.4329L54.1266 74.4871ZM66.8 71.28C75.5921 71.28 81.8556 74.2268 86.2026 79.8158L92.5174 74.9042C86.411 67.0532 77.6345 63.28 66.8 63.28V71.28ZM86.2218 79.8402C90.7408 85.5582 93.2 93.3984 93.2 103.76H101.2C101.2 92.1483 98.4326 82.3885 92.4982 74.8798L86.2218 79.8402ZM93.2 103.76C93.2 111.188 91.5624 119.743 88.1458 129.475L95.6942 132.125C99.3176 121.804 101.2 112.332 101.2 103.76H93.2ZM88.1376 129.499C84.7385 139.377 81.2877 148.88 77.7855 158.007L85.2545 160.873C88.7923 151.653 92.2748 142.063 95.7024 132.101L88.1376 129.499ZM77.7711 158.045C74.2839 167.417 72.4 175.503 72.4 182.16H80.4C80.4 176.87 81.9294 169.81 85.2689 160.835L77.7711 158.045ZM72.4 182.16C72.4 186.576 73.2501 190.625 75.6162 193.633C78.126 196.824 81.787 198.16 85.84 198.16V190.16C83.5997 190.16 82.5406 189.496 81.9038 188.687C81.1232 187.695 80.4 185.744 80.4 182.16H72.4ZM132.56 120.24C129.684 120.24 127.438 121.736 125.888 123.79C124.429 125.722 123.451 128.284 122.755 131.129L130.525 133.031C131.109 130.649 131.758 129.292 132.272 128.61C132.508 128.298 132.649 128.217 132.653 128.215C132.654 128.214 132.637 128.224 132.606 128.232C132.576 128.24 132.557 128.24 132.56 128.24V120.24ZM122.755 131.129C121.411 136.614 120.056 145.359 118.667 157.215L126.613 158.145C127.998 146.321 129.308 138 130.525 133.031L122.755 131.129ZM126.12 159.653C130.011 152.788 133.021 146.755 135.11 141.576C137.177 136.449 138.442 131.917 138.635 128.123L130.645 127.717C130.518 130.216 129.623 133.791 127.69 138.584C125.779 143.325 122.949 149.025 119.16 155.707L126.12 159.653ZM138.64 127.92C138.64 126.463 138.444 124.761 137.602 123.272C136.61 121.516 134.91 120.409 132.867 120.252L132.253 128.228C132.025 128.211 131.675 128.131 131.311 127.898C130.95 127.666 130.74 127.388 130.638 127.208C130.547 127.048 130.556 126.992 130.583 127.132C130.61 127.268 130.64 127.52 130.64 127.92H138.64ZM168.318 199.44L166.177 196.061L166.138 196.086L166.099 196.112L168.318 199.44ZM160.957 198.96V194.96H155.542L157.134 200.136L160.957 198.96ZM163.038 195.92L166.952 196.744L166.956 196.724L166.96 196.704L163.038 195.92ZM164.957 189.68L161.31 188.039L161.29 188.083L161.271 188.128L164.957 189.68ZM169.437 190.48C169.605 190.48 169.563 190.508 169.408 190.439C169.231 190.359 169.077 190.228 168.985 190.103C168.91 190.002 168.949 190.004 169.004 190.23C169.061 190.46 169.117 190.848 169.117 191.44H177.117C177.117 189.409 176.761 187.158 175.41 185.337C173.892 183.291 171.656 182.48 169.437 182.48V190.48ZM169.117 191.44C169.117 193.157 168.418 194.642 166.177 196.061L170.458 202.819C174.617 200.185 177.117 196.337 177.117 191.44H169.117ZM166.099 196.112C165.476 196.527 164.993 196.771 164.642 196.907C164.29 197.042 164.142 197.04 164.157 197.04V205.04C166.479 205.04 168.659 204.02 170.536 202.768L166.099 196.112ZM164.157 197.04C163.82 197.04 163.955 196.97 164.257 197.166C164.41 197.266 164.545 197.396 164.647 197.537C164.744 197.672 164.777 197.771 164.781 197.784L157.134 200.136C157.582 201.592 158.469 202.945 159.898 203.874C161.267 204.764 162.788 205.04 164.157 205.04V197.04ZM160.957 202.96C163.123 202.96 164.639 201.715 165.499 200.459C166.278 199.32 166.694 197.967 166.952 196.744L159.123 195.096C159.046 195.462 158.972 195.711 158.914 195.867C158.854 196.03 158.835 196.031 158.896 195.941C158.959 195.849 159.154 195.595 159.537 195.36C159.953 195.105 160.452 194.96 160.957 194.96V202.96ZM166.96 196.704C167.333 194.837 167.894 193.014 168.644 191.232L161.271 188.128C160.315 190.399 159.595 192.736 159.115 195.136L166.96 196.704ZM168.605 191.321C168.873 190.726 169.089 190.559 169.122 190.535C169.141 190.522 169.154 190.515 169.178 190.508C169.205 190.5 169.284 190.48 169.437 190.48V182.48C167.682 182.48 165.968 182.957 164.473 184.025C163.012 185.068 162.002 186.501 161.31 188.039L168.605 191.321ZM316.803 174.16L320.012 176.548L320.582 175.782L320.744 174.841L316.803 174.16ZM324.483 135.92L328.301 137.113L328.31 137.083L328.319 137.053L324.483 135.92ZM342.243 135.6L338.417 134.431L338.411 134.452L338.405 134.474L342.243 135.6ZM326.403 167.92L323.056 165.729L322.545 166.51L322.432 167.437L326.403 167.92ZM314.243 223.6L317.946 225.111L317.948 225.107L314.243 223.6ZM294.403 253.04L291.888 249.929L291.873 249.942L291.857 249.955L294.403 253.04ZM278.883 261.68L280.266 265.433L280.266 265.433L278.883 261.68ZM225.443 248.56L221.983 250.567L221.986 250.573L225.443 248.56ZM222.563 220.24L226.388 221.409L226.397 221.38L226.406 221.35L222.563 220.24ZM238.403 199.92L236.655 196.322L236.625 196.337L236.594 196.352L238.403 199.92ZM273.603 210.32L277.22 208.612L277.215 208.602L273.603 210.32ZM274.403 231.44L270.689 229.954L270.674 229.992L270.66 230.03L274.403 231.44ZM258.243 241.68L255.918 244.935L255.918 244.935L258.243 241.68ZM256.483 239.44V235.44H250.328L252.828 241.065L256.483 239.44ZM267.683 229.68L271.384 231.197L271.39 231.181L271.397 231.166L267.683 229.68ZM267.363 210L271.027 208.397L271.024 208.389L271.021 208.381L267.363 210ZM229.283 212.88L232.707 214.947L232.714 214.936L232.72 214.925L229.283 212.88ZM225.123 238.48L229.027 237.608L229.02 237.577L229.012 237.547L225.123 238.48ZM242.403 258.8L243.839 255.067L243.83 255.063L243.821 255.06L242.403 258.8ZM271.843 258.64L270.578 254.845L270.527 254.862L270.476 254.881L271.843 258.64ZM284.323 252.24L281.953 249.017L281.93 249.034L281.907 249.052L284.323 252.24ZM294.243 242L297.492 244.333L297.492 244.333L294.243 242ZM301.763 229.36L298.185 227.571L298.167 227.607L298.15 227.644L301.763 229.36ZM307.683 214.48L311.492 215.702L311.501 215.674L311.509 215.647L307.683 214.48ZM315.363 182.32L319.29 183.079L322.026 168.925L312.388 179.646L315.363 182.32ZM274.563 156.56L270.763 155.311L270.755 155.336L270.747 155.361L274.563 156.56ZM282.403 136.4L278.788 134.688L278.781 134.702L278.775 134.716L282.403 136.4ZM290.243 115.76L286.428 114.558L286.422 114.575L286.417 114.591L290.243 115.76ZM288.003 77.36L285.101 80.113L285.101 80.1131L288.003 77.36ZM245.603 87.44L242.2 85.338L242.19 85.3538L242.18 85.3696L245.603 87.44ZM248.483 138L246.803 141.63L246.822 141.639L246.841 141.648L248.483 138ZM274.083 125.68L270.505 123.891L270.48 123.942L270.456 123.993L274.083 125.68ZM275.043 125.04V129.04H275.439L275.827 128.962L275.043 125.04ZM276.323 125.36L273.494 128.188L273.695 128.389L273.923 128.56L276.323 125.36ZM276.643 126.48L273.065 124.691L272.994 124.833L272.934 124.981L276.643 126.48ZM268.163 138.64L270.706 141.728L270.732 141.706L270.759 141.683L268.163 138.64ZM235.843 128.56L232.048 129.825L232.058 129.856L232.069 129.887L235.843 128.56ZM237.123 96.88L240.905 98.1821L240.908 98.1734L240.911 98.1647L237.123 96.88ZM257.123 70.96L255.236 67.4329L255.22 67.4414L255.205 67.45L257.123 70.96ZM294.243 77.36L291.085 79.8158L291.095 79.828L291.105 79.8402L294.243 77.36ZM296.803 130.8L293.029 129.475L293.025 129.487L293.02 129.499L296.803 130.8ZM286.403 159.44L282.668 158.007L282.661 158.026L282.654 158.045L286.403 159.44ZM337.443 124.24L337.75 120.252L337.596 120.24H337.443V124.24ZM331.523 132.08L327.638 131.129L327.638 131.129L331.523 132.08ZM327.523 157.68L323.55 157.215L331.003 159.653L327.523 157.68ZM339.523 127.92L343.518 128.123L343.523 128.022V127.92H339.523ZM290.723 198.16C295.663 198.16 300.546 195.962 305.277 192.334C310.027 188.692 314.933 183.375 320.012 176.548L313.594 171.772C308.753 178.279 304.352 182.962 300.409 185.986C296.447 189.024 293.249 190.16 290.723 190.16V198.16ZM320.744 174.841C324.28 154.377 326.797 141.926 328.301 137.113L320.665 134.727C318.969 140.154 316.365 153.197 312.861 173.479L320.744 174.841ZM328.319 137.053C329.903 131.688 331.687 128.065 333.497 125.855C335.226 123.744 336.785 123.12 338.243 123.12V115.12C333.834 115.12 330.167 117.296 327.308 120.785C324.532 124.175 322.369 128.952 320.647 134.787L328.319 137.053ZM338.243 123.12C338.813 123.12 339.132 123.206 339.283 123.266C339.41 123.317 339.457 123.362 339.496 123.408C339.604 123.537 340.003 124.167 340.003 126H348.003C348.003 123.246 347.441 120.436 345.63 118.272C343.704 115.973 340.984 115.12 338.243 115.12V123.12ZM340.003 126C340.003 128.005 339.533 130.781 338.417 134.431L346.068 136.769C347.299 132.739 348.003 129.115 348.003 126H340.003ZM338.405 134.474C335.668 143.799 330.595 154.212 323.056 165.729L329.75 170.111C337.571 158.161 343.058 147.027 346.081 136.726L338.405 134.474ZM322.432 167.437C319.459 191.855 315.457 209.999 310.538 222.093L317.948 225.107C323.269 212.028 327.373 193.051 330.373 168.403L322.432 167.437ZM310.539 222.089C305.249 235.054 298.97 244.206 291.888 249.929L296.917 256.151C305.409 249.288 312.356 238.813 317.946 225.111L310.539 222.089ZM291.857 249.955C287.992 253.144 283.228 255.816 277.5 257.927L280.266 265.433C286.697 263.064 292.281 259.976 296.948 256.125L291.857 249.955ZM277.5 257.927C271.912 259.985 265.72 261.04 258.883 261.04V269.04C266.552 269.04 273.693 267.855 280.266 265.433L277.5 257.927ZM258.883 261.04C243.999 261.04 234.396 255.983 228.899 246.547L221.986 250.573C229.289 263.11 241.98 269.04 258.883 269.04V261.04ZM228.903 246.553C226.074 241.675 224.803 237.243 224.803 233.2H216.803C216.803 238.971 218.625 244.778 221.983 250.567L228.903 246.553ZM224.803 233.2C224.803 228.721 225.351 224.805 226.388 221.409L218.737 219.071C217.428 223.355 216.803 228.079 216.803 233.2H224.803ZM226.406 221.35C228.92 212.647 233.561 206.858 240.211 203.488L236.594 196.352C227.671 200.875 221.752 208.633 218.72 219.13L226.406 221.35ZM240.15 203.518C243.324 201.977 246.724 201.2 250.403 201.2V193.2C245.548 193.2 240.949 194.237 236.655 196.322L240.15 203.518ZM250.403 201.2C255.551 201.2 259.59 202.195 262.714 203.962C265.799 205.707 268.23 208.337 269.991 212.038L277.215 208.602C274.815 203.556 271.3 199.627 266.652 196.998C262.042 194.391 256.562 193.2 250.403 193.2V201.2ZM269.986 212.028C271.598 215.442 272.323 218.54 272.323 221.36H280.323C280.323 217.14 279.234 212.878 277.22 208.612L269.986 212.028ZM272.323 221.36C272.323 224.382 271.776 227.237 270.689 229.954L278.117 232.926C279.59 229.243 280.323 225.378 280.323 221.36H272.323ZM270.66 230.03C269.439 233.268 267.959 235.35 266.402 236.614C264.905 237.829 263.108 238.48 260.803 238.48V246.48C264.791 246.48 268.407 245.291 271.444 242.826C274.42 240.41 276.593 236.972 278.146 232.85L270.66 230.03ZM260.803 238.48C260.698 238.48 260.649 238.466 260.636 238.462C260.625 238.459 260.605 238.452 260.568 238.425L255.918 244.935C257.376 245.976 259.05 246.48 260.803 246.48V238.48ZM260.568 238.425C260.482 238.364 260.317 238.219 260.138 237.815L252.828 241.065C253.501 242.581 254.51 243.929 255.918 244.935L260.568 238.425ZM256.483 243.44C263.637 243.44 268.436 238.389 271.384 231.197L263.982 228.163C261.596 233.984 258.929 235.44 256.483 235.44V243.44ZM271.397 231.166C272.858 227.513 273.603 223.757 273.603 219.92H265.603C265.603 222.696 265.068 225.447 263.969 228.194L271.397 231.166ZM273.603 219.92C273.603 216.085 272.706 212.233 271.027 208.397L263.698 211.603C265.006 214.593 265.603 217.355 265.603 219.92H273.603ZM271.021 208.381C269.255 204.393 266.512 201.269 262.796 199.189C259.135 197.14 254.773 196.24 249.923 196.24V204.24C253.82 204.24 256.738 204.966 258.889 206.171C260.987 207.345 262.59 209.1 263.705 211.619L271.021 208.381ZM249.923 196.24C239.572 196.24 231.475 201.372 225.845 210.835L232.72 214.925C237.117 207.535 242.78 204.24 249.923 204.24V196.24ZM225.859 210.813C222.095 217.046 220.163 223.675 220.163 230.64H228.163C228.163 225.232 229.644 220.021 232.707 214.947L225.859 210.813ZM220.163 230.64C220.163 233.536 220.525 236.463 221.233 239.413L229.012 237.547C228.441 235.164 228.163 232.864 228.163 230.64H220.163ZM221.219 239.352C223.74 250.636 230.394 258.523 240.984 262.54L243.821 255.06C235.852 252.037 230.986 246.377 229.027 237.608L221.219 239.352ZM240.967 262.533C245.665 264.341 250.913 265.2 256.643 265.2V257.2C251.706 257.2 247.46 256.459 243.839 255.067L240.967 262.533ZM256.643 265.2C262.507 265.2 268.041 264.279 273.21 262.399L270.476 254.881C266.258 256.415 261.658 257.2 256.643 257.2V265.2ZM273.108 262.435C278.262 260.717 282.824 258.394 286.738 255.428L281.907 249.052C278.782 251.419 275.023 253.363 270.578 254.845L273.108 262.435ZM286.692 255.463C290.7 252.516 294.294 248.788 297.492 244.333L290.994 239.667C288.218 243.532 285.199 246.631 281.953 249.017L286.692 255.463ZM297.492 244.333C300.607 239.995 303.238 235.576 305.376 231.076L298.15 227.644C296.234 231.677 293.852 235.685 290.994 239.667L297.492 244.333ZM305.341 231.149C307.584 226.661 309.63 221.505 311.492 215.702L303.874 213.258C302.109 218.762 300.208 223.525 298.185 227.571L305.341 231.149ZM311.509 215.647C314.229 206.724 316.82 195.859 319.29 183.079L311.435 181.561C308.999 194.168 306.47 204.743 303.857 213.313L311.509 215.647ZM312.388 179.646C307.779 184.772 303.632 188.459 299.95 190.842C296.255 193.232 293.263 194.16 290.883 194.16V202.16C295.329 202.16 299.83 200.448 304.296 197.558C308.774 194.661 313.453 190.428 318.337 184.994L312.388 179.646ZM290.883 194.16C284.969 194.16 281.246 192.577 278.939 190.083C276.577 187.531 275.043 183.324 275.043 176.72H267.043C267.043 184.41 268.815 190.922 273.067 195.517C277.373 200.17 283.57 202.16 290.883 202.16V194.16ZM275.043 176.72C275.043 171.257 276.119 164.951 278.379 157.759L270.747 155.361C268.314 163.102 267.043 170.236 267.043 176.72H275.043ZM278.363 157.809C280.776 150.463 283.334 143.892 286.031 138.084L278.775 134.716C275.924 140.855 273.256 147.724 270.763 155.311L278.363 157.809ZM286.018 138.112C288.995 131.827 291.675 124.76 294.068 116.929L286.417 114.591C284.117 122.12 281.57 128.813 278.788 134.688L286.018 138.112ZM294.058 116.962C296.611 108.86 297.923 101.145 297.923 93.84H289.923C289.923 100.188 288.782 107.086 286.428 114.558L294.058 116.962ZM297.923 93.84C297.923 86.1966 295.687 79.6483 290.905 74.607L285.101 80.1131C288.211 83.3917 289.923 87.8301 289.923 93.84H297.923ZM290.905 74.607C286.048 69.4878 279.466 67.12 271.683 67.12V75.12C277.766 75.12 282.064 76.9122 285.101 80.113L290.905 74.607ZM271.683 67.12C259.336 67.12 249.479 73.5518 242.2 85.338L249.006 89.542C255.166 79.5682 262.697 75.12 271.683 75.12V67.12ZM242.18 85.3696C236.596 94.6003 233.763 104.432 233.763 114.8H241.763C241.763 105.968 244.156 97.5597 249.025 89.5104L242.18 85.3696ZM233.763 114.8C233.763 127.57 237.546 137.347 246.803 141.63L250.162 134.37C245.126 132.039 241.763 126.35 241.763 114.8H233.763ZM246.841 141.648C249.516 142.851 252.372 143.44 255.363 143.44V135.44C253.447 135.44 251.716 135.069 250.124 134.352L246.841 141.648ZM255.363 143.44C260.267 143.44 264.722 142.053 268.572 139.223C272.374 136.428 275.377 132.382 277.71 127.367L270.456 123.993C268.522 128.151 266.271 130.985 263.834 132.777C261.443 134.534 258.672 135.44 255.363 135.44V143.44ZM277.661 127.469C277.53 127.73 277.245 128.166 276.702 128.528C276.134 128.907 275.529 129.04 275.043 129.04V121.04C274.13 121.04 273.152 121.28 272.264 121.872C271.401 122.447 270.849 123.203 270.505 123.891L277.661 127.469ZM275.827 128.962C275.647 128.998 275.273 129.041 274.793 128.921C274.282 128.793 273.831 128.525 273.494 128.188L279.151 122.532C277.686 121.066 275.799 120.81 274.258 121.118L275.827 128.962ZM273.923 128.56C273.694 128.389 273.139 127.895 272.877 126.979C272.596 125.995 272.831 125.158 273.065 124.691L280.221 128.269C280.667 127.375 280.957 126.138 280.569 124.781C280.2 123.491 279.378 122.651 278.723 122.16L273.923 128.56ZM272.934 124.981C271.116 129.478 268.642 132.974 265.567 135.597L270.759 141.683C274.937 138.119 278.116 133.508 280.351 127.979L272.934 124.981ZM265.62 135.552C262.743 137.921 259.386 139.12 255.363 139.12V147.12C261.153 147.12 266.329 145.332 270.706 141.728L265.62 135.552ZM255.363 139.12C251.262 139.12 248.117 138.096 245.674 136.274C243.209 134.435 241.13 131.537 239.616 127.233L232.069 129.887C233.969 135.29 236.85 139.672 240.891 142.686C244.955 145.718 249.863 147.12 255.363 147.12V139.12ZM239.638 127.295C238.41 123.613 237.763 119.357 237.763 114.48H229.763C229.763 120.056 230.502 125.187 232.048 129.825L239.638 127.295ZM237.763 114.48C237.763 109.812 238.766 104.395 240.905 98.1821L233.341 95.578C230.999 102.379 229.763 108.695 229.763 114.48H237.763ZM240.911 98.1647C244.829 86.6104 250.946 78.8942 259.041 74.47L255.205 67.45C244.953 73.0525 237.736 82.6162 233.335 95.5953L240.911 98.1647ZM259.009 74.4871C263.025 72.3391 267.232 71.28 271.683 71.28V63.28C265.894 63.28 260.394 64.6743 255.236 67.4329L259.009 74.4871ZM271.683 71.28C280.475 71.28 286.738 74.2268 291.085 79.8158L297.4 74.9042C291.294 67.0532 282.517 63.28 271.683 63.28V71.28ZM291.105 79.8402C295.624 85.5582 298.083 93.3984 298.083 103.76H306.083C306.083 92.1483 303.315 82.3885 297.381 74.8798L291.105 79.8402ZM298.083 103.76C298.083 111.188 296.445 119.743 293.029 129.475L300.577 132.125C304.2 121.804 306.083 112.332 306.083 103.76H298.083ZM293.02 129.499C289.621 139.377 286.171 148.88 282.668 158.007L290.137 160.873C293.675 151.653 297.158 142.063 300.585 132.101L293.02 129.499ZM282.654 158.045C279.167 167.417 277.283 175.503 277.283 182.16H285.283C285.283 176.87 286.812 169.81 290.152 160.835L282.654 158.045ZM277.283 182.16C277.283 186.576 278.133 190.625 280.499 193.633C283.009 196.824 286.67 198.16 290.723 198.16V190.16C288.483 190.16 287.423 189.496 286.787 188.687C286.006 187.695 285.283 185.744 285.283 182.16H277.283ZM337.443 120.24C334.567 120.24 332.321 121.736 330.771 123.79C329.312 125.722 328.334 128.284 327.638 131.129L335.408 133.031C335.991 130.649 336.641 129.292 337.155 128.61C337.391 128.298 337.532 128.217 337.536 128.215C337.537 128.214 337.52 128.224 337.489 128.232C337.459 128.24 337.44 128.24 337.443 128.24V120.24ZM327.638 131.129C326.294 136.614 324.939 145.359 323.55 157.215L331.496 158.145C332.88 146.321 334.191 138 335.408 133.031L327.638 131.129ZM331.003 159.653C334.894 152.788 337.904 146.755 339.993 141.576C342.06 136.449 343.325 131.917 343.518 128.123L335.528 127.717C335.401 130.216 334.506 133.791 332.573 138.584C330.661 143.325 327.831 149.025 324.043 155.707L331.003 159.653ZM343.523 127.92C343.523 126.463 343.327 124.761 342.485 123.272C341.493 121.516 339.793 120.409 337.75 120.252L337.136 128.228C336.908 128.211 336.558 128.131 336.194 127.898C335.833 127.666 335.622 127.388 335.521 127.208C335.43 127.048 335.439 126.992 335.466 127.132C335.492 127.268 335.523 127.52 335.523 127.92H343.523ZM355.92 154.96L352.273 153.317L352.265 153.335L352.258 153.352L355.92 154.96ZM376.24 131.76L374.731 128.056L374.678 128.077L374.625 128.101L376.24 131.76ZM391.92 132.56L394.749 129.732L394.749 129.732L391.92 132.56ZM392.88 139.76L392.439 143.736L392.659 143.76H392.88V139.76ZM389.84 135.6L387.183 138.59L387.356 138.744L387.546 138.877L389.84 135.6ZM367.28 152.4L370.918 154.063L370.922 154.054L370.926 154.045L367.28 152.4ZM373.52 186.64L370.459 184.066L370.453 184.072L373.52 186.64ZM384.4 170.32L380.894 168.395L380.883 168.414L380.873 168.434L384.4 170.32ZM404.72 151.12L408.638 151.928L408.649 151.872L408.659 151.815L404.72 151.12ZM398.96 180.72L394.989 180.243L394.979 180.322L394.973 180.401L398.96 180.72ZM414 183.12L417.306 185.372L417.306 185.372L414 183.12ZM426.96 161.04L430.548 162.808L430.548 162.808L426.96 161.04ZM432.4 150V146H429.912L428.812 148.232L432.4 150ZM436.72 150L440.298 151.789L443.192 146H436.72V150ZM434.16 155.28L430.549 153.56L430.53 153.599L430.513 153.639L434.16 155.28ZM428.24 166.96L431.762 168.856L431.77 168.842L431.777 168.828L428.24 166.96ZM419.6 181.68L416.247 179.5L416.227 179.53L416.208 179.56L419.6 181.68ZM410.48 193.36L407.609 190.575L407.607 190.577L410.48 193.36ZM391.28 167.76L395.226 168.418L396.002 163.76H391.28V167.76ZM390.16 167.76V163.76H387.768L386.636 165.868L390.16 167.76ZM362.8 194.16C359.759 194.16 357.93 193.112 356.653 191.188C355.184 188.975 354.16 185.151 354.16 179.12H346.16C346.16 185.783 347.243 191.478 349.988 195.612C352.924 200.035 357.415 202.16 362.8 202.16V194.16ZM354.16 179.12C354.16 172.452 355.902 164.952 359.583 156.568L352.258 153.352C348.259 162.461 346.16 171.068 346.16 179.12H354.16ZM359.567 156.603C364.674 145.266 370.876 138.501 377.856 135.419L374.625 128.101C365.177 132.272 357.833 140.974 352.273 153.317L359.567 156.603ZM377.749 135.464C380.189 134.471 382.558 134 384.88 134V126C381.443 126 378.052 126.703 374.731 128.056L377.749 135.464ZM384.88 134C387.073 134 388.305 134.602 389.092 135.388L394.749 129.732C392.122 127.105 388.661 126 384.88 126V134ZM389.092 135.388C390.156 136.452 390.48 137.39 390.48 138.32H398.48C398.48 134.983 397.098 132.081 394.749 129.732L389.092 135.388ZM390.48 138.32C390.48 138.068 390.57 137.178 391.404 136.427C391.777 136.092 392.157 135.921 392.431 135.839C392.69 135.761 392.86 135.76 392.88 135.76V143.76C393.932 143.76 395.468 143.532 396.756 142.373C398.124 141.142 398.48 139.532 398.48 138.32H390.48ZM393.322 135.784C393.475 135.801 394.159 135.922 394.773 136.604C395.391 137.29 395.44 137.991 395.44 138.16H387.44C387.44 139.289 387.73 140.737 388.827 141.956C389.921 143.172 391.325 143.612 392.439 143.736L393.322 135.784ZM395.44 138.16C395.44 135.458 393.854 133.527 392.134 132.323L387.546 138.877C387.763 139.029 387.737 139.061 387.648 138.92C387.601 138.845 387.545 138.733 387.503 138.589C387.46 138.443 387.44 138.296 387.44 138.16H395.44ZM392.498 132.61C390.517 130.849 387.948 130.32 385.52 130.32V138.32C386.932 138.32 387.244 138.644 387.183 138.59L392.498 132.61ZM385.52 130.32C380.837 130.32 376.678 132.456 373.104 135.999C369.581 139.492 366.458 144.499 363.634 150.755L370.926 154.045C373.543 148.248 376.18 144.215 378.736 141.681C381.242 139.197 383.484 138.32 385.52 138.32V130.32ZM363.642 150.737C358.337 162.343 355.6 173.524 355.6 184.24H363.6C363.6 174.903 365.984 164.857 370.918 154.063L363.642 150.737ZM355.6 184.24C355.6 187.498 355.933 190.478 356.927 192.783C357.443 193.98 358.218 195.188 359.403 196.104C360.644 197.064 362.1 197.52 363.6 197.52V189.52C363.767 189.52 364.057 189.59 364.297 189.776C364.482 189.919 364.425 189.967 364.274 189.617C363.934 188.829 363.6 187.168 363.6 184.24H355.6ZM363.6 197.52C366.093 197.52 368.405 196.498 370.44 195.087C372.492 193.664 374.538 191.656 376.587 189.208L370.453 184.072C368.663 186.211 367.136 187.643 365.881 188.513C364.609 189.395 363.881 189.52 363.6 189.52V197.52ZM376.582 189.214C380.731 184.28 384.509 178.603 387.928 172.206L380.873 168.434C377.679 174.41 374.203 179.613 370.459 184.066L376.582 189.214ZM387.906 172.245C394.998 159.333 399.408 150.627 400.824 146.497L393.257 143.903C392.112 147.24 388.096 155.28 380.894 168.395L387.906 172.245ZM400.824 146.497C401.41 144.789 401.916 143.836 402.251 143.385C402.62 142.889 402.299 143.6 401.2 143.6V135.6C398.609 135.6 396.847 137.244 395.829 138.615C394.778 140.031 393.951 141.878 393.257 143.903L400.824 146.497ZM401.2 143.6C401.295 143.6 401.184 143.615 400.996 143.51C400.803 143.402 400.739 143.285 400.763 143.326C400.803 143.393 400.923 143.633 401.027 144.158C401.13 144.678 401.2 145.386 401.2 146.32H409.2C409.2 143.814 408.851 141.272 407.637 139.234C406.229 136.869 403.904 135.6 401.2 135.6V143.6ZM401.2 146.32C401.2 147.412 401.073 148.771 400.781 150.425L408.659 151.815C409.008 149.842 409.2 148.001 409.2 146.32H401.2ZM400.803 150.312C397.305 167.269 395.335 177.362 394.989 180.243L402.932 181.197C403.226 178.744 405.095 169.105 408.638 151.928L400.803 150.312ZM394.973 180.401C394.759 183.075 394.64 185.133 394.64 186.48H402.64C402.64 185.48 402.735 183.699 402.948 181.039L394.973 180.401ZM394.64 186.48C394.64 189.232 394.95 191.874 395.953 193.968C396.48 195.069 397.266 196.156 398.426 196.964C399.62 197.794 400.971 198.16 402.32 198.16V190.16C402.443 190.16 402.721 190.206 402.995 190.396C403.235 190.564 403.253 190.691 403.168 190.512C402.944 190.046 402.64 188.848 402.64 186.48H394.64ZM402.32 198.16C405.335 198.16 407.985 196.276 410.068 194.307C412.316 192.182 414.729 189.156 417.306 185.372L410.694 180.868C408.258 184.444 406.218 186.938 404.573 188.493C402.763 190.204 402.079 190.16 402.32 190.16V198.16ZM417.306 185.372C422.416 177.87 426.832 170.349 430.548 162.808L423.372 159.272C419.835 166.451 415.611 173.65 410.694 180.868L417.306 185.372ZM430.548 162.808L435.988 151.768L428.812 148.232L423.372 159.272L430.548 162.808ZM432.4 154H436.72V146H432.4V154ZM433.143 148.211C432.486 149.525 431.62 151.311 430.549 153.56L437.772 157C438.834 154.769 439.675 153.035 440.298 151.789L433.143 148.211ZM430.513 153.639C429.612 155.64 427.696 159.427 424.704 165.092L431.777 168.828C434.758 163.186 436.789 159.186 437.808 156.921L430.513 153.639ZM424.718 165.064C421.772 170.535 418.948 175.344 416.247 179.5L422.954 183.86C425.799 179.483 428.735 174.478 431.762 168.856L424.718 165.064ZM416.208 179.56C413.687 183.594 410.821 187.263 407.609 190.575L413.352 196.145C416.967 192.417 420.18 188.3 422.992 183.8L416.208 179.56ZM407.607 190.577C404.429 193.858 402.558 194.48 401.84 194.48V202.48C406.029 202.48 409.919 199.689 413.353 196.143L407.607 190.577ZM401.84 194.48C399.013 194.48 397.381 193.535 396.26 191.899C394.953 189.991 394 186.628 394 181.2H386C386 187.292 387.021 192.569 389.661 196.421C392.486 200.545 396.775 202.48 401.84 202.48V194.48ZM394 181.2C394 177.642 394.397 173.39 395.226 168.418L387.335 167.102C386.457 172.37 386 177.078 386 181.2H394ZM391.28 163.76H390.16V171.76H391.28V163.76ZM386.636 165.868C381.259 175.884 376.436 183.163 372.187 187.884C367.794 192.766 364.691 194.16 362.8 194.16V202.16C368.27 202.16 373.407 198.488 378.133 193.236C383.005 187.824 388.181 179.903 393.685 169.652L386.636 165.868ZM452.148 112.56L452.59 108.584L452.37 108.56H452.148V112.56ZM454.388 113.84L457.643 111.515L457.643 111.515L454.388 113.84ZM452.948 121.2L449.493 119.185L449.461 119.239L449.431 119.295L452.948 121.2ZM451.508 131.76L447.685 132.936L447.699 132.981L447.714 133.025L451.508 131.76ZM455.508 141.36L451.844 142.963L451.845 142.965L455.508 141.36ZM455.668 193.2L452.596 190.639L452.581 190.656L452.567 190.673L455.668 193.2ZM437.428 164.4L434.048 162.261L434.041 162.272L434.034 162.284L437.428 164.4ZM448.148 152.56L450.43 155.845L450.436 155.841L450.442 155.837L448.148 152.56ZM450.228 153.04L446.397 154.189L446.448 154.36L446.515 154.526L450.228 153.04ZM449.588 155.6L451.934 158.84L451.962 158.82L451.988 158.8L449.588 155.6ZM435.188 176.88L438.96 178.214L438.962 178.207L435.188 176.88ZM434.228 195.12L437.557 192.901L437.518 192.843L437.476 192.785L434.228 195.12ZM448.948 187.6L452.631 189.161L452.631 189.161L448.948 187.6ZM450.068 141.52L446.214 142.588L446.214 142.588L450.068 141.52ZM446.868 129.52L450.791 128.736L448.58 117.68L443.329 127.657L446.868 129.52ZM436.468 150V154H438.956L440.056 151.769L436.468 150ZM432.148 150L428.577 148.199L425.651 154H432.148V150ZM446.228 122.8L449.742 124.711L450.165 123.933L450.221 123.05L446.228 122.8ZM451.828 116.56H452.148V108.56H451.828V116.56ZM451.707 116.536C451.71 116.536 451.6 116.522 451.444 116.433C451.283 116.341 451.18 116.229 451.134 116.165L457.643 111.515C456.411 109.79 454.612 108.809 452.59 108.584L451.707 116.536ZM451.134 116.165C451.162 116.205 451.178 116.232 451.186 116.248C451.193 116.263 451.195 116.268 451.194 116.265C451.193 116.262 451.191 116.255 451.189 116.247C451.188 116.239 451.188 116.236 451.188 116.24H459.188C459.188 114.489 458.623 112.886 457.643 111.515L451.134 116.165ZM451.188 116.24C451.188 115.842 451.272 115.642 451.229 115.782C451.2 115.874 451.129 116.07 450.983 116.394C450.691 117.041 450.208 117.96 449.493 119.185L456.404 123.215C457.182 121.88 457.819 120.693 458.274 119.686C458.638 118.879 459.188 117.567 459.188 116.24H451.188ZM449.431 119.295C447.948 122.033 446.868 124.829 446.868 127.44H454.868C454.868 126.851 455.175 125.487 456.466 123.105L449.431 119.295ZM446.868 127.44C446.868 129.32 447.138 131.157 447.685 132.936L455.332 130.584C455.026 129.589 454.868 128.546 454.868 127.44H446.868ZM447.714 133.025C448.211 134.517 449.633 137.909 451.844 142.963L459.173 139.757C456.904 134.571 455.659 131.563 455.303 130.495L447.714 133.025ZM451.845 142.965C456.609 153.84 458.868 163.307 458.868 171.44H466.868C466.868 161.866 464.222 151.28 459.172 139.755L451.845 142.965ZM458.868 171.44C458.868 179.415 456.699 185.715 452.596 190.639L458.741 195.761C464.238 189.165 466.868 180.959 466.868 171.44H458.868ZM452.567 190.673C448.528 195.631 443.961 197.84 438.708 197.84V205.84C446.683 205.84 453.422 202.289 458.769 195.727L452.567 190.673ZM438.708 197.84C436.297 197.84 435.143 197.146 434.475 196.336C433.685 195.377 432.948 193.498 432.948 190H424.948C424.948 194.396 425.838 198.436 428.302 201.424C430.887 204.561 434.613 205.84 438.708 205.84V197.84ZM432.948 190C432.948 182.96 435.436 175.155 440.823 166.516L434.034 162.284C428.114 171.778 424.948 181.04 424.948 190H432.948ZM440.809 166.539C443.917 161.625 447.146 158.126 450.43 155.845L445.867 149.275C441.471 152.328 437.553 156.721 434.048 162.261L440.809 166.539ZM450.442 155.837C450.51 155.79 450.404 155.878 450.143 155.965C449.873 156.055 449.3 156.186 448.569 156.018C446.837 155.618 446.4 154.2 446.397 154.189L454.06 151.891C453.737 150.813 452.794 148.782 450.368 148.222C448.288 147.743 446.607 148.756 445.855 149.283L450.442 155.837ZM446.515 154.526C446.511 154.516 446.356 154.117 446.508 153.51C446.669 152.867 447.042 152.51 447.188 152.4L451.988 158.8C452.988 158.05 453.895 156.946 454.269 155.45C454.634 153.99 454.373 152.631 453.942 151.554L446.515 154.526ZM447.242 152.36C440.203 157.458 435.006 165.34 431.415 175.553L438.962 178.207C442.197 169.007 446.601 162.702 451.934 158.84L447.242 152.36ZM431.417 175.546C429.802 180.113 428.822 184.222 428.634 187.79C428.447 191.343 429.03 194.741 430.98 197.455L437.476 192.785C436.973 192.085 436.49 190.737 436.623 188.21C436.755 185.698 437.481 182.393 438.96 178.214L431.417 175.546ZM430.9 197.339C432.53 199.784 435.035 201.04 437.908 201.04V193.04C437.775 193.04 437.697 193.027 437.662 193.019C437.629 193.011 437.626 193.007 437.639 193.014C437.652 193.021 437.658 193.027 437.652 193.021C437.644 193.013 437.609 192.98 437.557 192.901L430.9 197.339ZM437.908 201.04C444.917 201.04 449.671 196.147 452.631 189.161L445.265 186.039C442.892 191.64 440.287 193.04 437.908 193.04V201.04ZM452.631 189.161C455.57 182.226 456.948 173.815 456.948 164.08H448.948C448.948 173.118 447.66 180.387 445.265 186.039L452.631 189.161ZM456.948 164.08C456.948 155.657 455.951 147.774 453.923 140.452L446.214 142.588C448.026 149.132 448.948 156.289 448.948 164.08H456.948ZM453.923 140.452C451.977 133.424 450.967 129.618 450.791 128.736L442.946 130.304C443.196 131.555 444.32 135.75 446.214 142.588L453.923 140.452ZM443.329 127.657C440.109 133.774 436.626 140.633 432.881 148.231L440.056 151.769C443.777 144.22 447.228 137.426 450.408 131.383L443.329 127.657ZM436.468 146H432.148V154H436.468V146ZM435.72 151.801C441.795 139.757 446.466 130.735 449.742 124.711L442.715 120.889C439.377 127.025 434.662 136.136 428.577 148.199L435.72 151.801ZM450.221 123.05C450.421 119.843 450.944 117.979 451.458 117.039C451.69 116.615 451.841 116.526 451.821 116.539C451.77 116.573 451.73 116.56 451.828 116.56V108.56C448.427 108.56 445.925 110.483 444.439 113.201C443.086 115.674 442.462 118.931 442.236 122.55L450.221 123.05ZM485.01 137.52L488.947 138.227L488.959 138.156L488.969 138.086L485.01 137.52ZM492.21 138.32L488.43 139.628L488.436 139.647L488.443 139.665L492.21 138.32ZM492.37 148.88L488.455 148.056L488.45 148.081L488.445 148.105L492.37 148.88ZM489.97 161.04L486.045 160.265L485.103 165.04H489.97V161.04ZM490.93 161.04V165.04H493.529L494.585 162.665L490.93 161.04ZM525.17 132.56L522.046 135.059L522.083 135.105L522.122 135.151L525.17 132.56ZM525.33 161.04L521.411 160.236L520.426 165.04H525.33V161.04ZM525.97 161.04V165.04H528.534L529.604 162.71L525.97 161.04ZM559.73 134.64L562.777 132.049L562.777 132.049L559.73 134.64ZM558.29 165.52L554.403 164.576L554.399 164.593L554.395 164.61L558.29 165.52ZM558.13 200.08H562.13V196.08H558.13V200.08ZM548.69 162.64L552.55 163.686L552.553 163.677L548.69 162.64ZM536.21 150L532.713 148.057L532.709 148.064L532.706 148.071L536.21 150ZM523.57 177.36L519.813 175.986L519.806 176.006L519.799 176.026L523.57 177.36ZM518.13 194.32L522.038 195.17L522.042 195.153L522.046 195.136L518.13 194.32ZM513.49 173.04L509.557 172.311L509.553 172.33L509.55 172.349L513.49 173.04ZM505.49 142.48L508.836 144.671L508.846 144.657L508.854 144.643L505.49 142.48ZM495.09 162.96L498.792 164.475L498.8 164.456L498.807 164.437L495.09 162.96ZM483.25 194.8L479.364 193.85L479.344 193.932L479.327 194.016L483.25 194.8ZM480.53 194C480.299 194 480.292 193.958 480.392 194.009C480.507 194.068 480.549 194.139 480.522 194.097C480.396 193.905 480.05 193.107 480.05 191.12H472.05C472.05 193.72 472.45 196.362 473.818 198.463C475.379 200.861 477.83 202 480.53 202V194ZM480.05 191.12C480.05 191.135 480.05 191.053 480.07 190.819C480.089 190.603 480.118 190.316 480.162 189.948C480.249 189.212 480.383 188.224 480.567 186.972C480.935 184.47 481.49 180.997 482.235 176.54C483.724 167.63 485.961 154.862 488.947 138.227L481.073 136.813C478.085 153.458 475.842 166.263 474.344 175.22C473.596 179.697 473.031 183.23 472.652 185.808C472.296 188.231 472.05 190.146 472.05 191.12H480.05ZM488.969 138.086C489.018 137.747 489.076 137.557 489.108 137.474C489.138 137.393 489.124 137.466 489.007 137.603C488.877 137.754 488.675 137.92 488.413 138.035C488.159 138.146 487.962 138.16 487.89 138.16V130.16C486.034 130.16 484.242 130.869 482.933 132.397C481.759 133.766 481.264 135.453 481.05 136.954L488.969 138.086ZM487.89 138.16C487.876 138.16 487.805 138.155 487.714 138.117C487.626 138.081 487.6 138.048 487.635 138.081C487.738 138.18 488.067 138.58 488.43 139.628L495.99 137.012C494.82 133.633 492.378 130.16 487.89 130.16V138.16ZM488.443 139.665C488.801 140.67 489.01 141.86 489.01 143.28H497.01C497.01 141.073 496.685 138.957 495.977 136.975L488.443 139.665ZM489.01 143.28C489.01 144.658 488.837 146.245 488.455 148.056L496.284 149.704C496.756 147.462 497.01 145.315 497.01 143.28H489.01ZM488.445 148.105L486.045 160.265L493.894 161.815L496.294 149.655L488.445 148.105ZM489.97 165.04H490.93V157.04H489.97V165.04ZM494.585 162.665C499.21 152.259 503.637 144.74 507.805 139.886C512.022 134.974 515.465 133.36 518.13 133.36V125.36C512.048 125.36 506.584 129.026 501.735 134.674C496.836 140.38 492.036 148.701 487.274 159.415L494.585 162.665ZM518.13 133.36C520.031 133.36 521.176 133.971 522.046 135.059L528.293 130.061C525.75 126.882 522.202 125.36 518.13 125.36V133.36ZM522.122 135.151C523.278 136.51 523.89 138.134 523.89 140.24H531.89C531.89 136.373 530.688 132.876 528.217 129.969L522.122 135.151ZM523.89 140.24C523.89 145.414 523.089 152.057 521.411 160.236L529.248 161.844C530.984 153.383 531.89 146.159 531.89 140.24H523.89ZM525.33 165.04H525.97V157.04H525.33V165.04ZM529.604 162.71C534.061 153.01 538.354 146.023 542.419 141.52C546.508 136.991 549.926 135.44 552.69 135.44V127.44C546.707 127.44 541.299 130.822 536.481 136.16C531.638 141.524 526.945 149.337 522.335 159.37L529.604 162.71ZM552.69 135.44C554.435 135.44 555.653 136.02 556.682 137.231L562.777 132.049C560.179 128.993 556.705 127.44 552.69 127.44V135.44ZM556.682 137.231C557.735 138.47 558.45 140.298 558.45 143.12H566.45C566.45 138.902 565.351 135.077 562.777 132.049L556.682 137.231ZM558.45 143.12C558.45 146.069 557.205 153.045 554.403 164.576L562.177 166.464C564.921 155.168 566.45 147.211 566.45 143.12H558.45ZM554.395 164.61C551.731 176.009 550.29 184.472 550.29 189.68H558.29C558.29 185.501 559.515 177.858 562.185 166.43L554.395 164.61ZM550.29 189.68C550.29 193.28 550.607 196.454 551.497 198.865C551.951 200.096 552.648 201.387 553.769 202.399C554.976 203.488 556.488 204.08 558.13 204.08V196.08C558.491 196.08 558.884 196.238 559.13 196.461C559.292 196.607 559.188 196.598 559.002 196.095C558.612 195.039 558.29 193.013 558.29 189.68H550.29ZM554.13 200.08C554.13 199.552 554.31 199.185 554.405 199.037C554.481 198.918 554.48 198.971 554.234 199.163L559.145 205.477C560.47 204.447 562.13 202.669 562.13 200.08H554.13ZM554.234 199.163C554.015 199.333 553.77 199.44 553.33 199.44V207.44C555.449 207.44 557.445 206.8 559.145 205.477L554.234 199.163ZM553.33 199.44C551.48 199.44 550.491 198.825 549.743 197.65C548.799 196.169 548.05 193.437 548.05 188.88H540.05C540.05 194.03 540.847 198.577 542.997 201.95C545.341 205.629 548.992 207.44 553.33 207.44V199.44ZM548.05 188.88C548.05 183.346 549.48 175.016 552.55 163.686L544.829 161.594C541.713 173.091 540.05 182.254 540.05 188.88H548.05ZM552.553 163.677C554.109 157.882 555.29 153.084 556.084 149.303C556.859 145.616 557.33 142.616 557.33 140.56H549.33C549.33 141.704 549.027 143.984 548.255 147.657C547.503 151.236 546.364 155.878 544.827 161.603L552.553 163.677ZM557.33 140.56C557.33 138.605 557.038 136.449 555.891 134.671C554.55 132.593 552.419 131.6 550.13 131.6V139.6C550.142 139.6 549.957 139.6 549.694 139.464C549.417 139.321 549.244 139.126 549.169 139.009C549.11 138.918 549.159 138.953 549.219 139.231C549.278 139.506 549.33 139.936 549.33 140.56H557.33ZM550.13 131.6C546.525 131.6 543.395 133.749 540.814 136.42C538.146 139.18 535.455 143.121 532.713 148.057L539.706 151.943C542.297 147.279 544.593 144.02 546.566 141.98C548.624 139.851 549.788 139.6 550.13 139.6V131.6ZM532.706 148.071C527.396 157.714 523.093 167.02 519.813 175.986L527.326 178.734C530.446 170.207 534.57 161.272 539.714 151.929L532.706 148.071ZM519.799 176.026C516.731 184.699 514.813 190.626 514.214 193.504L522.046 195.136C522.513 192.894 524.221 187.514 527.341 178.694L519.799 176.026ZM514.221 193.47C514.124 193.916 514.025 194.225 513.943 194.426C513.86 194.631 513.818 194.669 513.86 194.615C513.909 194.552 514.065 194.378 514.357 194.225C514.663 194.065 514.983 194 515.25 194V202C517.336 202 519.028 200.991 520.16 199.545C521.17 198.254 521.713 196.665 522.038 195.17L514.221 193.47ZM515.25 194C515.019 194 515.012 193.958 515.112 194.009C515.227 194.068 515.269 194.139 515.242 194.097C515.116 193.905 514.77 193.107 514.77 191.12H506.77C506.77 193.72 507.17 196.362 508.538 198.463C510.099 200.861 512.55 202 515.25 202V194ZM514.77 191.12C514.77 190.627 514.939 189.016 515.405 185.915C515.852 182.948 516.525 178.891 517.43 173.731L509.55 172.349C508.641 177.535 507.955 181.665 507.494 184.725C507.054 187.65 506.77 189.906 506.77 191.12H514.77ZM517.423 173.769C519.186 164.26 520.514 156.644 521.402 150.935C522.272 145.345 522.77 141.298 522.77 139.12H514.77C514.77 140.568 514.387 143.988 513.497 149.705C512.626 155.303 511.314 162.834 509.557 172.311L517.423 173.769ZM522.77 139.12C522.77 137.003 522.49 134.769 521.443 132.935C520.204 130.768 518.086 129.52 515.57 129.52V137.52C515.504 137.52 515.254 137.5 514.954 137.325C514.656 137.151 514.522 136.948 514.497 136.905C514.486 136.885 514.564 137.02 514.64 137.418C514.715 137.81 514.77 138.365 514.77 139.12H522.77ZM515.57 129.52C512.728 129.52 510.252 130.975 508.232 132.77C506.17 134.604 504.142 137.179 502.125 140.317L508.854 144.643C510.677 141.808 512.25 139.903 513.547 138.75C514.888 137.558 515.531 137.52 515.57 137.52V129.52ZM502.143 140.289C498.13 146.419 494.546 153.493 491.372 161.483L498.807 164.437C501.82 156.853 505.169 150.274 508.836 144.671L502.143 140.289ZM491.387 161.445C484.701 177.789 480.623 188.701 479.364 193.85L487.135 195.75C488.223 191.299 492.038 180.984 498.792 164.475L491.387 161.445ZM479.327 194.016C479.26 194.353 479.191 194.557 479.147 194.662C479.104 194.767 479.106 194.723 479.202 194.609C479.309 194.484 479.503 194.308 479.793 194.173C480.084 194.038 480.35 194 480.53 194V202C482.409 202 484.093 201.208 485.297 199.791C486.37 198.529 486.893 196.982 487.172 195.584L479.327 194.016ZM597.562 115.12L595.422 111.741L595.383 111.766L595.344 111.792L597.562 115.12ZM590.362 115.12L594.194 113.971L594.176 113.913L594.157 113.855L590.362 115.12ZM590.202 114.64V110.64H584.653L586.408 115.905L590.202 114.64ZM592.282 111.6L596.197 112.424L596.201 112.404L596.205 112.384L592.282 111.6ZM594.202 105.36L590.555 103.719L590.535 103.763L590.516 103.808L594.202 105.36ZM600.122 183.12L596.817 180.868L596.817 180.868L600.122 183.12ZM618.522 150V146H616.034L614.934 148.232L618.522 150ZM622.842 150L626.42 151.789L629.315 146H622.842V150ZM620.282 155.28L616.671 153.56L616.653 153.599L616.635 153.639L620.282 155.28ZM614.362 166.96L617.884 168.856L617.892 168.842L617.899 168.828L614.362 166.96ZM605.722 181.68L602.369 179.5L602.349 179.53L602.331 179.56L605.722 181.68ZM596.602 193.36L593.731 190.575L593.73 190.577L596.602 193.36ZM582.682 145.68L586.56 146.661L586.568 146.629L586.576 146.596L582.682 145.68ZM583.643 141.52L579.848 140.255L579.783 140.451L579.738 140.652L583.643 141.52ZM584.602 137.84L588.514 138.678L588.519 138.651L588.525 138.624L584.602 137.84ZM585.562 133.52L589.443 134.49L589.449 134.468L589.454 134.446L585.562 133.52ZM592.602 134.32L588.779 135.496L588.793 135.541L588.808 135.585L592.602 134.32ZM592.602 144.72L596.507 145.588L596.512 145.566L596.517 145.544L592.602 144.72ZM590.522 153.36L594.403 154.33L594.403 154.33L590.522 153.36ZM588.282 162.8L584.374 161.95L584.374 161.95L588.282 162.8ZM586.522 171.76L590.445 172.544L590.452 172.51L590.458 172.476L586.522 171.76ZM598.682 106.16C598.85 106.16 598.808 106.188 598.653 106.119C598.476 106.039 598.322 105.908 598.23 105.783C598.155 105.682 598.194 105.684 598.249 105.91C598.306 106.14 598.362 106.528 598.362 107.12H606.362C606.362 105.089 606.006 102.838 604.655 101.017C603.137 98.9713 600.901 98.16 598.682 98.16V106.16ZM598.362 107.12C598.362 108.837 597.663 110.322 595.422 111.741L599.703 118.499C603.862 115.865 606.362 112.017 606.362 107.12H598.362ZM595.344 111.792C594.721 112.207 594.238 112.451 593.887 112.587C593.535 112.722 593.387 112.72 593.403 112.72V120.72C595.724 120.72 597.904 119.7 599.781 118.448L595.344 111.792ZM593.403 112.72C592.905 112.72 592.945 112.633 593.225 112.78C593.389 112.867 593.605 113.019 593.805 113.259C594.008 113.502 594.13 113.757 594.194 113.971L586.531 116.269C587.009 117.864 588.073 119.109 589.5 119.86C590.794 120.541 592.193 120.72 593.403 120.72V112.72ZM594.157 113.855L593.997 113.375L586.408 115.905L586.568 116.385L594.157 113.855ZM590.202 118.64C592.368 118.64 593.884 117.395 594.744 116.139C595.523 115 595.939 113.647 596.197 112.424L588.368 110.776C588.291 111.142 588.217 111.391 588.159 111.547C588.099 111.71 588.08 111.711 588.141 111.621C588.204 111.529 588.399 111.275 588.782 111.04C589.198 110.785 589.697 110.64 590.202 110.64V118.64ZM596.205 112.384C596.578 110.517 597.139 108.694 597.889 106.912L590.516 103.808C589.56 106.079 588.84 108.416 588.36 110.816L596.205 112.384ZM597.85 107.001C598.118 106.406 598.334 106.239 598.367 106.215C598.386 106.202 598.399 106.195 598.423 106.188C598.45 106.18 598.529 106.16 598.682 106.16V98.16C596.927 98.16 595.213 98.6367 593.718 99.7051C592.257 100.748 591.247 102.181 590.555 103.719L597.85 107.001ZM588.442 198.16C591.457 198.16 594.107 196.276 596.19 194.307C598.438 192.182 600.851 189.156 603.428 185.372L596.817 180.868C594.381 184.444 592.341 186.938 590.695 188.493C588.885 190.204 588.201 190.16 588.442 190.16V198.16ZM603.428 185.372C608.538 177.87 612.955 170.349 616.671 162.808L609.494 159.272C605.957 166.451 601.734 173.65 596.817 180.868L603.428 185.372ZM616.671 162.808L622.111 151.768L614.934 148.232L609.494 159.272L616.671 162.808ZM618.522 154H622.842V146H618.522V154ZM619.265 148.211C618.608 149.525 617.742 151.311 616.671 153.56L623.894 157C624.956 154.769 625.797 153.035 626.42 151.789L619.265 148.211ZM616.635 153.639C615.734 155.64 613.818 159.427 610.826 165.092L617.899 168.828C620.88 163.186 622.911 159.186 623.93 156.921L616.635 153.639ZM610.841 165.064C607.894 170.535 605.07 175.344 602.369 179.5L609.076 183.86C611.922 179.483 614.857 174.478 617.884 168.856L610.841 165.064ZM602.331 179.56C599.809 183.594 596.943 187.263 593.731 190.575L599.474 196.145C603.089 192.417 606.302 188.3 609.114 183.8L602.331 179.56ZM593.73 190.577C590.551 193.858 588.68 194.48 587.962 194.48V202.48C592.151 202.48 596.041 199.689 599.475 196.143L593.73 190.577ZM587.962 194.48C584.951 194.48 583.298 193.557 582.251 192.198C581.051 190.642 580.123 187.838 580.123 183.12H572.123C572.123 188.642 573.167 193.518 575.914 197.082C578.814 200.843 583.08 202.48 587.962 202.48V194.48ZM580.123 183.12C580.123 175.984 582.19 163.93 586.56 146.661L578.805 144.699C574.428 161.99 572.123 174.896 572.123 183.12H580.123ZM586.576 146.596C587.004 144.778 587.328 143.372 587.547 142.388L579.738 140.652C579.53 141.588 579.214 142.955 578.789 144.764L586.576 146.596ZM587.437 142.785C587.821 141.634 588.177 140.251 588.514 138.678L580.691 137.002C580.388 138.416 580.104 139.486 579.848 140.255L587.437 142.785ZM588.525 138.624C588.835 137.073 589.142 135.696 589.443 134.49L581.682 132.55C581.343 133.904 581.01 135.407 580.68 137.056L588.525 138.624ZM589.454 134.446C589.544 134.069 589.632 133.822 589.698 133.675C589.764 133.526 589.785 133.527 589.72 133.603C589.645 133.69 589.479 133.849 589.205 133.98C588.925 134.114 588.652 134.16 588.442 134.16V126.16C586.499 126.16 584.83 127.015 583.645 128.397C582.583 129.636 582.011 131.168 581.671 132.594L589.454 134.446ZM588.442 134.16C588.429 134.16 588.346 134.155 588.236 134.109C588.127 134.063 588.08 134.014 588.094 134.028C588.158 134.092 588.46 134.457 588.779 135.496L596.426 133.144C595.892 131.41 595.074 129.695 593.751 128.372C592.325 126.946 590.489 126.16 588.442 126.16V134.16ZM588.808 135.585C589.061 136.344 589.242 137.439 589.242 138.96H597.242C597.242 136.855 596.998 134.856 596.397 133.055L588.808 135.585ZM589.242 138.96C589.242 140.461 589.066 142.103 588.688 143.896L596.517 145.544C596.993 143.284 597.242 141.086 597.242 138.96H589.242ZM588.698 143.852C588.283 145.719 587.6 148.557 586.642 152.39L594.403 154.33C595.365 150.483 596.069 147.561 596.507 145.588L588.698 143.852ZM586.642 152.39C585.677 156.25 584.919 159.441 584.374 161.95L592.191 163.65C592.712 161.253 593.448 158.15 594.403 154.33L586.642 152.39ZM584.374 161.95C583.828 164.462 583.232 167.497 582.587 171.044L590.458 172.476C591.093 168.983 591.671 166.044 592.191 163.65L584.374 161.95ZM582.6 170.976C581.39 177.027 580.762 182.524 580.762 187.44H588.762C588.762 183.182 589.308 178.226 590.445 172.544L582.6 170.976ZM580.762 187.44C580.762 189.914 581.079 192.401 582.174 194.401C582.755 195.462 583.591 196.45 584.753 197.157C585.923 197.869 587.2 198.16 588.442 198.16V190.16C588.441 190.16 588.496 190.16 588.59 190.185C588.687 190.21 588.8 190.255 588.912 190.323C589.154 190.47 589.224 190.618 589.191 190.559C589.146 190.477 589.028 190.213 588.927 189.662C588.828 189.119 588.762 188.389 588.762 187.44H580.762ZM620.361 137.52L624.298 138.227L624.311 138.156L624.321 138.086L620.361 137.52ZM627.561 138.32L623.781 139.628L623.788 139.647L623.794 139.665L627.561 138.32ZM627.721 148.88L623.807 148.056L623.803 148.076L623.799 148.096L627.721 148.88ZM625.161 161.68L621.239 160.896L620.282 165.68H625.161V161.68ZM626.121 161.68V165.68H628.718L629.775 163.308L626.121 161.68ZM661.481 132.56L658.433 135.151L658.466 135.189L658.5 135.227L661.481 132.56ZM659.881 164.56L655.991 163.63L655.991 163.63L659.881 164.56ZM659.401 200.08H663.401V196.08H659.401V200.08ZM650.121 161.84L646.261 160.79L646.258 160.802L646.255 160.814L650.121 161.84ZM637.161 148.56L633.645 146.652L633.638 146.667L633.63 146.682L637.161 148.56ZM624.201 177.36L620.438 176.004L620.434 176.016L620.429 176.029L624.201 177.36ZM618.601 194.48L614.701 193.594L614.681 193.679L614.666 193.764L618.601 194.48ZM615.881 194C615.651 194 615.643 193.958 615.744 194.009C615.859 194.068 615.9 194.139 615.873 194.097C615.748 193.905 615.401 193.107 615.401 191.12H607.401C607.401 193.72 607.801 196.362 609.169 198.463C610.731 200.861 613.182 202 615.881 202V194ZM615.401 191.12C615.401 191.135 615.402 191.053 615.422 190.819C615.44 190.603 615.47 190.316 615.514 189.948C615.601 189.212 615.735 188.224 615.919 186.972C616.286 184.47 616.841 180.997 617.587 176.54C619.076 167.63 621.313 154.862 624.298 138.227L616.424 136.813C613.437 153.458 611.193 166.263 609.696 175.22C608.948 179.697 608.383 183.23 608.004 185.808C607.648 188.231 607.401 190.146 607.401 191.12H615.401ZM624.321 138.086C624.369 137.747 624.428 137.557 624.459 137.474C624.49 137.393 624.476 137.466 624.358 137.603C624.229 137.754 624.027 137.92 623.765 138.035C623.511 138.146 623.313 138.16 623.241 138.16V130.16C621.385 130.16 619.594 130.869 618.284 132.397C617.111 133.766 616.616 135.453 616.401 136.954L624.321 138.086ZM623.241 138.16C623.228 138.16 623.156 138.155 623.065 138.117C622.977 138.081 622.952 138.048 622.987 138.081C623.09 138.18 623.418 138.58 623.781 139.628L631.341 137.012C630.172 133.633 627.73 130.16 623.241 130.16V138.16ZM623.794 139.665C624.153 140.67 624.361 141.86 624.361 143.28H632.361C632.361 141.073 632.036 138.957 631.328 136.975L623.794 139.665ZM624.361 143.28C624.361 144.658 624.188 146.245 623.807 148.056L631.635 149.704C632.108 147.462 632.361 145.315 632.361 143.28H624.361ZM623.799 148.096L621.239 160.896L629.084 162.464L631.644 149.664L623.799 148.096ZM625.161 165.68H626.121V157.68H625.161V165.68ZM629.775 163.308C634.508 152.684 639.018 145 643.247 140.033C647.535 134.997 651.002 133.36 653.641 133.36V125.36C647.534 125.36 642.041 129.109 637.156 134.847C632.211 140.654 627.334 149.129 622.467 160.052L629.775 163.308ZM653.641 133.36C656.162 133.36 657.545 134.106 658.433 135.151L664.529 129.969C661.791 126.748 657.947 125.36 653.641 125.36V133.36ZM658.5 135.227C659.465 136.305 660.201 138.064 660.201 141.04H668.201C668.201 136.763 667.125 132.868 664.462 129.893L658.5 135.227ZM660.201 141.04C660.201 144.103 658.9 151.454 655.991 163.63L663.772 165.49C666.622 153.56 668.201 145.231 668.201 141.04H660.201ZM655.991 163.63C653.119 175.649 651.561 184.453 651.561 189.68H659.561C659.561 185.52 660.883 177.578 663.772 165.49L655.991 163.63ZM651.561 189.68C651.561 193.28 651.879 196.454 652.769 198.865C653.223 200.096 653.919 201.387 655.041 202.399C656.247 203.488 657.76 204.08 659.401 204.08V196.08C659.763 196.08 660.155 196.238 660.402 196.461C660.563 196.607 660.459 196.598 660.274 196.095C659.884 195.039 659.561 193.013 659.561 189.68H651.561ZM655.401 200.08C655.401 199.552 655.581 199.185 655.677 199.037C655.753 198.918 655.751 198.971 655.505 199.163L660.417 205.477C661.742 204.447 663.401 202.669 663.401 200.08H655.401ZM655.505 199.163C655.286 199.333 655.042 199.44 654.601 199.44V207.44C656.721 207.44 658.716 206.8 660.417 205.477L655.505 199.163ZM654.601 199.44C652.752 199.44 651.763 198.825 651.014 197.65C650.071 196.169 649.321 193.437 649.321 188.88H641.321C641.321 194.03 642.118 198.577 644.268 201.95C646.613 205.629 650.264 207.44 654.601 207.44V199.44ZM649.321 188.88C649.321 183.457 650.802 174.866 653.987 162.866L646.255 160.814C643.041 172.921 641.321 182.357 641.321 188.88H649.321ZM653.981 162.89C655.644 156.775 656.905 151.724 657.753 147.756C658.58 143.889 659.081 140.759 659.081 138.64H651.081C651.081 139.828 650.756 142.218 649.93 146.084C649.124 149.85 647.905 154.745 646.261 160.79L653.981 162.89ZM659.081 138.64C659.081 136.522 658.686 134.197 657.233 132.337C655.634 130.29 653.331 129.52 651.081 129.52V137.52C651.327 137.52 651.357 137.56 651.261 137.519C651.142 137.468 651.014 137.371 650.929 137.263C650.86 137.174 650.902 137.183 650.96 137.408C651.021 137.64 651.081 138.034 651.081 138.64H659.081ZM651.081 129.52C647.438 129.52 644.315 131.83 641.786 134.563C639.139 137.423 636.434 141.513 633.645 146.652L640.677 150.468C643.329 145.58 645.664 142.151 647.657 139.997C649.768 137.716 650.885 137.52 651.081 137.52V129.52ZM633.63 146.682C628.221 156.85 623.819 166.625 620.438 176.004L627.964 178.716C631.197 169.749 635.435 160.324 640.693 150.438L633.63 146.682ZM620.429 176.029C617.258 185.014 615.297 190.969 614.701 193.594L622.502 195.366C622.972 193.297 624.744 187.84 627.973 178.691L620.429 176.029ZM614.666 193.764C614.592 194.172 614.512 194.441 614.451 194.603C614.388 194.768 614.366 194.764 614.436 194.674C614.515 194.572 614.698 194.378 615.009 194.219C615.329 194.055 615.644 194 615.881 194V202C617.909 202 619.616 201.054 620.766 199.566C621.78 198.255 622.271 196.657 622.537 195.196L614.666 193.764ZM711.8 189.52L714.299 192.643L714.31 192.635L711.8 189.52ZM722.2 178.48L725.439 180.828L725.462 180.796L725.484 180.764L722.2 178.48ZM736.6 154.48L732.972 152.796L732.961 152.82L732.95 152.844L736.6 154.48ZM738.68 150V146H736.127L735.052 148.316L738.68 150ZM743 150L746.682 151.565L749.047 146H743V150ZM735 165.84L738.477 167.818L738.484 167.805L738.491 167.793L735 165.84ZM724.92 181.52L721.72 179.12L721.72 179.12L724.92 181.52ZM713.56 193.2L716.021 196.353L716.045 196.335L716.068 196.316L713.56 193.2ZM684.6 147.12L688.054 149.138L688.058 149.132L688.061 149.125L684.6 147.12ZM712.92 158.48L716.141 160.853L716.158 160.829L716.175 160.805L712.92 158.48ZM691.96 170.8V174.8H691.987L692.014 174.8L691.96 170.8ZM689.72 169.2L685.84 170.17L685.862 170.26L685.889 170.349L689.72 169.2ZM689.56 168.56V164.56H684.437L685.68 169.53L689.56 168.56ZM705.4 157.68L702.117 155.396L702.11 155.406L705.4 157.68ZM693.4 149.2L689.815 147.427L689.805 147.446L689.796 147.466L693.4 149.2ZM683.32 174.64C683.32 181.446 684.508 187.267 687.5 191.477C690.671 195.938 695.434 198 701.08 198V190C697.553 190 695.437 188.835 694.021 186.843C692.426 184.599 691.32 180.741 691.32 174.64H683.32ZM701.08 198C705.705 198 710.136 195.974 714.299 192.643L709.302 186.397C705.998 189.039 703.283 190 701.08 190V198ZM714.31 192.635C718.444 189.305 722.152 185.362 725.439 180.828L718.962 176.132C716.062 180.132 712.837 183.549 709.291 186.405L714.31 192.635ZM725.484 180.764C732.363 170.876 737.327 162.639 740.25 156.116L732.95 152.844C730.327 158.695 725.691 166.457 718.917 176.196L725.484 180.764ZM740.228 156.164L742.308 151.684L735.052 148.316L732.972 152.796L740.228 156.164ZM738.68 154H743V146H738.68V154ZM739.319 148.435C737.584 152.518 734.993 157.659 731.509 163.887L738.491 167.793C742.048 161.434 744.79 156.015 746.682 151.565L739.319 148.435ZM731.524 163.862C728.061 169.947 724.792 175.024 721.72 179.12L728.12 183.92C731.448 179.483 734.899 174.106 738.477 167.818L731.524 163.862ZM721.72 179.12C718.73 183.106 715.18 186.762 711.052 190.084L716.068 196.316C720.688 192.598 724.71 188.467 728.12 183.92L721.72 179.12ZM711.099 190.047C707.15 193.129 703.836 194.32 701.08 194.32V202.32C706.218 202.32 711.224 200.097 716.021 196.353L711.099 190.047ZM701.08 194.32C693.93 194.32 689.264 192.336 686.306 189.018C683.27 185.613 681.4 180.103 681.4 171.76H673.4C673.4 181.124 675.478 188.894 680.335 194.342C685.27 199.877 692.444 202.32 701.08 202.32V194.32ZM681.4 171.76C681.4 164.362 683.554 156.837 688.054 149.138L681.147 145.102C676.046 153.829 673.4 162.732 673.4 171.76H681.4ZM688.061 149.125C694.249 138.446 701.297 134 709.08 134V126C697.45 126 688.178 132.967 681.139 145.115L688.061 149.125ZM709.08 134C711.78 134 713.097 134.722 713.808 135.499C714.581 136.344 715.32 137.999 715.32 141.2H723.32C723.32 136.934 722.353 132.989 719.712 130.101C717.01 127.145 713.207 126 709.08 126V134ZM715.32 141.2C715.32 145.681 713.603 150.643 709.665 156.155L716.175 160.805C720.771 154.37 723.32 147.813 723.32 141.2H715.32ZM709.7 156.107C704.257 163.494 698.336 166.715 691.907 166.8L692.014 174.8C701.585 174.672 709.637 169.68 716.141 160.853L709.7 156.107ZM691.96 166.8C691.975 166.8 692.373 166.807 692.845 167.145C693.338 167.497 693.513 167.921 693.552 168.051L685.889 170.349C686.248 171.545 686.956 172.77 688.195 173.655C689.415 174.526 690.773 174.8 691.96 174.8V166.8ZM693.601 168.23L693.441 167.59L685.68 169.53L685.84 170.17L693.601 168.23ZM689.56 172.56C697.054 172.56 703.383 167.634 708.691 159.954L702.11 155.406C697.391 162.232 693.16 164.56 689.56 164.56V172.56ZM708.684 159.964C713.936 152.414 717.08 145.44 717.08 139.28H709.08C709.08 142.934 707.105 148.226 702.117 155.396L708.684 159.964ZM717.08 139.28C717.08 137.222 716.701 134.943 715.283 133.111C713.715 131.086 711.45 130.32 709.24 130.32V138.32C709.455 138.32 709.457 138.355 709.338 138.304C709.196 138.243 709.052 138.131 708.957 138.009C708.879 137.907 708.913 137.9 708.967 138.11C709.023 138.324 709.08 138.698 709.08 139.28H717.08ZM709.24 130.32C705.133 130.32 701.467 132.151 698.302 135.125C695.18 138.057 692.38 142.241 689.815 147.427L696.986 150.973C699.327 146.239 701.62 142.983 703.779 140.955C705.894 138.969 707.694 138.32 709.24 138.32V130.32ZM689.796 147.466C685.507 156.381 683.32 165.451 683.32 174.64H691.32C691.32 166.763 693.187 158.872 697.005 150.934L689.796 147.466Z" fill="#002539"/>
</svg>
