<svg width="32" height="35" viewBox="0 0 32 35" fill="none" xmlns="http://www.w3.org/2000/svg">
<g clip-path="url(#clip0_387_98)">
<path d="M6.40002 3.8501H29.44V5.1626H6.40002V3.8501Z" fill="#FF5520"/>
<path d="M30.72 6.5625H6.22078C5.89412 6.55854 5.32713 6.67579 5.02856 6.5625C4.72999 6.44921 4.33675 6.58922 4.11427 6.3848C3.8918 6.18039 3.3106 5.95016 3.19999 5.6875C3.08938 5.42484 2.7238 5.09118 2.74285 4.8125C2.74125 4.25792 2.758 3.4686 3.19999 3.0625C3.64198 2.6564 5.57335 2.22632 6.22078 2.1875H30.72C31.0595 2.1875 31.385 2.07227 31.6251 1.86715C31.8651 1.66203 31.631 1.60269 31.631 1.31261C31.631 1.31261 31.5428 1.31261 30.72 1.09409C30.72 2.18784 30.72 1.86736 30.72 1.09409L6.22078 1.09375C4.89417 1.13345 3.97875 1.09364 2.71569 1.33431C1.79392 2.15052 1.27916 3.24073 1.27998 4.375C1.2676 4.55349 1.2676 4.73245 1.27998 4.91094C1.26765 4.99812 1.26765 5.08625 1.27998 5.17344V30.625C1.27916 31.7593 1.79392 32.8495 2.71569 33.6657C3.63746 34.4819 4.89417 34.9603 6.22078 35H30.72C31.0595 35 31.385 34.8848 31.6251 34.6796C31.8651 34.4745 32 34.1963 32 33.9062V7.92969V7.83125V7.73281C32.0007 7.43525 31.8688 7.14861 31.631 6.93121C31.3932 6.71381 31.0675 6.58197 30.72 6.5625ZM30.72 33.6657H6.22078C6.22078 34.0814 4.28197 32.7811 3.83998 32.375C3.39799 31.9689 2.7141 31.1796 2.71569 30.625V7.83125C3.44348 8.17432 5.38994 7.95054 6.22078 7.92969L17.3714 7.875L30.72 7.73281V33.6657Z" fill="#FF5520"/>
</g>
<defs>
<clipPath id="clip0_387_98">
<rect width="32" height="35" fill="white"/>
</clipPath>
</defs>
</svg>
