<svg width="59" height="61" viewBox="0 0 59 61" fill="none" xmlns="http://www.w3.org/2000/svg">
<path d="M58.1222 12.5485C56.0695 13.489 53.8644 14.1244 51.5462 14.4116C53.9382 12.9318 55.7277 10.6028 56.5809 7.85917C54.3336 9.23927 51.874 10.2107 49.3091 10.7313C47.5843 8.8272 45.2997 7.56517 42.8101 7.14108C40.3204 6.717 37.765 7.1546 35.5406 8.38594C33.3161 9.61728 31.5471 11.5735 30.5082 13.9508C29.4692 16.3281 29.2185 18.9936 29.7949 21.5333C25.2413 21.297 20.7866 20.0733 16.72 17.9417C12.6534 15.8102 9.0658 12.8184 6.18994 9.16051C5.20661 10.9143 4.64119 12.9476 4.64119 15.1131C4.64009 17.0625 5.10442 18.9821 5.99297 20.7015C6.88153 22.4209 8.16684 23.887 9.73486 24.9697C7.91637 24.9099 6.138 24.4018 4.54777 23.4879V23.6404C4.54759 26.3746 5.46235 29.0246 7.13685 31.1408C8.81134 33.2571 11.1424 34.7092 13.7346 35.2507C12.0476 35.7227 10.279 35.7923 8.56223 35.4541C9.29358 37.8067 10.7182 39.8639 12.6366 41.3378C14.555 42.8117 16.8712 43.6285 19.2609 43.6738C15.2042 46.9663 10.1943 48.7523 5.03698 48.7444C4.12342 48.7447 3.21063 48.6895 2.30331 48.5792C7.53828 52.0592 13.6322 53.9061 19.8558 53.8989C40.9237 53.8989 52.441 35.8582 52.441 20.2117C52.441 19.7033 52.4287 19.1899 52.4066 18.6816C54.6469 17.0066 56.5806 14.9324 58.1173 12.5562L58.1222 12.5485V12.5485Z" fill="#002539"/>
</svg>
