<svg width="35" height="35" viewBox="0 0 35 35" fill="none" xmlns="http://www.w3.org/2000/svg">
<path d="M31.1144 16.6856C29.645 15.7554 24.4988 13.8311 20.2172 12.3913L23.3252 8.6874L23.6623 9.09058L24.4049 8.20615L24.0677 7.80231L26.2167 5.2399L25.8055 4.74856L27.9545 2.1875L26.1205 0L23.9709 2.56173L23.5573 2.07038L21.4066 4.63212L20.6016 3.67365L15.6368 9.59808L16.2627 10.3472L20.475 5.32202L20.6593 5.52394L16.1122 10.9429C12.0085 8.77154 10.4533 11.1684 8.32708 14.4799C7.16333 16.2918 5.71433 18.548 3.45975 20.7449C2.72242 21.4617 1.967 22.6962 2.05975 24.0113C2.10525 24.6642 2.39458 25.589 3.43408 26.4008L1.22092 31.1372L0 32.5951L0.604333 33.316L1.83108 31.8547L4.67367 29.9721C5.20392 30.7886 6.02175 31.3681 6.8565 31.463C8.86375 31.6945 10.5647 32.5567 12.2103 33.3907C13.8419 34.2186 15.3825 35 16.9913 35C19.1129 35 20.7696 34.6682 22.5225 34.3162C24.7981 33.8605 27.3776 33.3442 31.7339 33.3442C33.3544 33.3442 34.4966 31.8163 34.8676 29.155C35.5227 24.4731 33.663 18.2969 31.1144 16.6856ZM14.0041 23.8128C13.4447 23.5153 12.9127 23.2333 12.474 23.0475C12.4419 23.034 12.4063 23.0226 12.3742 23.0091C12.6262 22.5535 13.1384 21.7814 14.1487 20.6911C14.0723 21.982 14.0262 23.1754 14.0041 23.8128ZM23.5579 3.27856L25.2041 5.2399L23.5614 7.19721L21.9152 5.23587L23.5579 3.27856ZM21.1715 6.12231L22.8177 8.08365L10.6254 22.614C9.02417 22.4963 7.1015 22.9997 5.44658 24.8641L21.1715 6.12231ZM4.221 21.7855C6.60392 19.5186 8.0745 17.1608 9.275 15.2923C11.3423 12.073 12.4227 10.1985 15.484 11.6927L4.67483 24.5761C4.13992 24.2119 2.87233 23.0684 4.221 21.7855ZM2.31292 30.5611L4.039 26.8538L4.18775 27.0308C4.00147 27.7409 4.03467 28.5036 4.28167 29.1887L2.31292 30.5611ZM34.0352 28.7552C33.8771 29.8913 32.6882 31.4381 31.3448 31.4381C26.8864 31.4381 24.6423 32.196 22.3148 32.6308C17.8092 33.4714 14.4649 32.4019 13.0089 31.3311C9.35958 28.6482 7.36983 30.032 5.69275 28.5412C5.15317 28.0613 5.20158 26.8888 5.7295 26.1558C8.06283 22.9237 11.1008 23.4655 12.0867 24.0053C14.9246 25.5601 17.5053 25.7889 18.1953 25.6153C18.8866 25.4524 19.4979 25.0189 19.9751 24.4758C19.4326 24.9355 18.7991 25.2384 18.1528 25.2781C17.5082 25.3299 15.652 24.6615 15.3376 24.5061C15.2238 23.8619 15.0407 22.7137 15.0237 21.8716C16.1869 23.24 17.4656 23.5873 17.4656 23.5873L14.9777 19.8019C14.9777 19.8019 18.6177 15.1772 21.0397 13.7577C25.1172 15.1388 29.4023 16.6883 30.6355 17.469C32.7343 18.7957 34.601 24.7087 34.0352 28.7552Z" fill="#FF5520"/>
</svg>
