<svg width="35" height="35" viewBox="0 0 35 35" fill="none" xmlns="http://www.w3.org/2000/svg">
<g clip-path="url(#clip0_387_79)">
<path fill-rule="evenodd" clip-rule="evenodd" d="M22.2297 10.8783C22.2297 12.0073 21.7812 13.09 20.983 13.8883C20.1847 14.6866 19.1019 15.1351 17.973 15.1351C16.844 15.1351 15.7613 14.6866 14.963 13.8883C14.1647 13.09 13.7162 12.0073 13.7162 10.8783C13.7162 9.74938 14.1647 8.66665 14.963 7.86836C15.7613 7.07006 16.844 6.62158 17.973 6.62158C19.1019 6.62158 20.1847 7.07006 20.983 7.86836C21.7812 8.66665 22.2297 9.74938 22.2297 10.8783ZM20.3378 10.8783C20.3378 11.5055 20.0887 12.1071 19.6452 12.5506C19.2017 12.994 18.6002 13.2432 17.973 13.2432C17.3458 13.2432 16.7443 12.994 16.3008 12.5506C15.8573 12.1071 15.6081 11.5055 15.6081 10.8783C15.6081 10.2511 15.8573 9.64963 16.3008 9.20613C16.7443 8.76263 17.3458 8.51347 17.973 8.51347C18.6002 8.51347 19.2017 8.76263 19.6452 9.20613C20.0887 9.64963 20.3378 10.2511 20.3378 10.8783Z" fill="#FF5520" stroke="white" stroke-width="0.7"/>
<path fill-rule="evenodd" clip-rule="evenodd" d="M3.78757 0.056528C4.03757 0.0355814 4.28566 0.114805 4.47725 0.27677C4.66884 0.438735 4.78824 0.670175 4.80919 0.920177L5.08068 4.10707C14.5657 2.42707 21.1636 2.41193 30.8653 4.11369L31.1358 0.920177C31.1463 0.796385 31.1811 0.675871 31.2381 0.565517C31.2952 0.455164 31.3734 0.357133 31.4684 0.277022C31.5633 0.196911 31.6732 0.136289 31.7915 0.0986188C31.9099 0.0609485 32.0346 0.0469673 32.1584 0.0574738L34.0436 0.218285C34.2935 0.239472 34.5247 0.358977 34.6864 0.550541C34.8482 0.742105 34.9273 0.990055 34.9063 1.23991L34.5951 4.89977C34.7312 4.99467 34.8399 5.12368 34.9104 5.27388C34.9809 5.42407 35.0106 5.59016 34.9966 5.75548C34.9826 5.92079 34.9254 6.07952 34.8307 6.21573C34.736 6.35195 34.6071 6.46085 34.457 6.53153L34.1259 10.4307C34.1155 10.5546 34.0806 10.6752 34.0235 10.7856C33.9664 10.896 33.8881 10.9941 33.793 11.0742C33.6979 11.1544 33.588 11.215 33.4695 11.2526C33.351 11.2902 33.2263 11.3041 33.1024 11.2934L31.2181 11.1326C30.9683 11.1114 30.7371 10.9919 30.5753 10.8004C30.4135 10.6088 30.3344 10.3608 30.3554 10.111L30.7035 6.00558C30.1952 5.91577 29.6862 5.82937 29.1767 5.74639C29.268 6.02908 29.3143 6.32435 29.3139 6.62139L29.3177 6.95247V6.96004C29.33 8.04882 29.3631 10.9217 29.0254 13.6611C28.8362 15.1936 28.5061 16.9332 27.8619 18.3663C27.3804 19.4352 26.3919 21.0168 24.5946 21.5636V22.5927C25.2993 22.343 26.0059 22.1056 26.5905 21.959C26.9604 21.8644 27.6358 21.7092 28.3367 21.7717C28.9787 21.8228 29.5906 22.0654 30.0934 22.4679C30.4459 22.755 30.7297 23.1173 30.924 23.5283C31.1182 23.9393 31.2181 24.3885 31.2162 24.8431C31.2162 25.7163 30.9353 27.7907 30.7111 29.2673C30.5909 30.06 30.4651 30.8168 30.3667 31.3304L30.3582 31.3721C30.2892 31.7315 30.1851 32.2679 29.8947 32.756L29.8928 32.7598C29.8266 32.8704 29.5286 33.3746 28.9128 33.7454C28.5353 33.9729 28.11 34.1094 27.6706 34.1442C27.2312 34.1791 26.7897 34.1113 26.381 33.9463C25.9723 33.7812 25.6076 33.5234 25.3156 33.1932C25.0236 32.8631 24.8124 32.4695 24.6986 32.0437C24.5284 31.4165 24.4782 30.7619 24.4527 30.1764C24.4432 29.9759 24.4366 29.7886 24.4309 29.6088C24.4196 29.2825 24.4101 28.9845 24.3855 28.6903C23.5858 28.9716 22.778 29.229 21.963 29.4622C20.7332 29.8075 19.3115 30.1206 17.973 30.1206C16.6345 30.1206 15.2136 29.8084 13.983 29.4622C13.1811 29.2328 12.3862 28.9798 11.5992 28.7036L11.5803 28.9504C11.5262 29.6653 11.4675 30.3798 11.4043 31.094C11.3759 31.4411 11.3296 31.9831 11.1063 32.4769C10.9174 32.8956 10.6297 33.2621 10.2678 33.5451C9.90598 33.828 9.48087 34.0189 9.029 34.1013C8.57713 34.1838 8.112 34.1553 7.67357 34.0183C7.23513 33.8814 6.83649 33.64 6.51189 33.315C5.82608 32.6292 5.73433 31.775 5.67568 31.2358L5.65676 31.0713C5.63784 30.9123 5.60662 30.7042 5.56406 30.4469C5.49122 29.9957 5.39568 29.4631 5.29257 28.8842L5.24716 28.6317C5.12687 27.9722 5.01461 27.3112 4.91041 26.649C4.82433 26.0842 4.72973 25.3927 4.72973 24.8431C4.72973 24.0495 5.04095 23.1282 5.85257 22.4688C6.40279 22.0265 7.08315 21.7772 7.78892 21.7594C8.28838 21.7404 8.76324 21.8218 9.10662 21.8984C9.20027 21.9192 9.28351 21.94 9.35541 21.958C9.94 22.1056 10.6457 22.343 11.3513 22.5918V21.5484C11.233 21.5094 11.1165 21.4649 11.0023 21.415C9.86054 20.9146 9.11892 19.9583 8.66014 19.1514C8.47178 18.8202 8.30678 18.4763 8.16635 18.1222C7.63662 16.8111 7.31784 15.2598 7.11068 13.8541C6.65946 10.793 6.62162 7.55315 6.62162 6.62139C6.62162 6.31301 6.67081 6.01599 6.76162 5.73883C6.26311 5.82018 5.75703 5.9072 5.24149 5.99991L5.59054 10.111C5.6115 10.3608 5.5324 10.6088 5.37064 10.8004C5.20887 10.9919 4.97767 11.1114 4.72784 11.1326L2.84257 11.2934C2.59272 11.3144 2.34477 11.2353 2.15321 11.0735C1.96164 10.9117 1.84214 10.6805 1.82095 10.4307L1.48987 6.53153C1.33926 6.46138 1.20983 6.35272 1.11466 6.21653C1.01949 6.08035 0.961944 5.92146 0.947837 5.75592C0.93373 5.59037 0.963561 5.42404 1.03432 5.27371C1.10507 5.12339 1.21425 4.9944 1.35081 4.89977L1.0396 1.23896C1.01864 0.989109 1.09774 0.741159 1.2595 0.549595C1.42127 0.358031 1.65247 0.238526 1.9023 0.217339L3.78757 0.056528ZM11.8253 5.05301C12.1232 5.50234 12.2973 6.04153 12.2973 6.62139C12.2973 7.47747 12.3361 10.3863 12.7258 13.0264C12.9216 14.3564 13.1789 15.4159 13.4636 16.0809H22.6649L22.6743 16.0591L22.6857 16.0364C22.9761 15.3903 23.2249 14.328 23.3923 12.9668C23.678 10.6492 23.6543 8.18693 23.642 7.04518V7.0395L23.6392 6.62139C23.6392 6.04531 23.8095 5.50991 24.1046 5.06247C19.8478 4.62734 16.0196 4.62545 11.8253 5.05301ZM22.7027 21.5503V20.7917C22.7027 20.5572 22.7898 20.331 22.9471 20.1571C23.1044 19.9832 23.3207 19.8739 23.554 19.8504C24.8424 19.7199 25.655 18.6586 26.1365 17.5896C26.6634 16.4186 26.9661 14.9041 27.1486 13.4294C27.4693 10.8242 27.4381 8.06018 27.4258 6.97328V6.96855L27.422 6.62139C27.422 6.37051 27.3224 6.12991 27.145 5.95251C26.9676 5.77511 26.727 5.67545 26.4761 5.67545C26.2252 5.67545 25.9846 5.77511 25.8072 5.95251C25.6298 6.12991 25.5301 6.37051 25.5301 6.62139L25.5339 7.02531V7.03572C25.5453 8.17747 25.5717 10.7476 25.27 13.1986C25.0959 14.6156 24.8197 15.904 24.4111 16.8121C24.2162 17.2453 24.0261 17.5329 23.8312 17.7154C23.6559 17.8806 23.4241 17.9726 23.1832 17.9727H12.9008C12.7529 17.9728 12.6071 17.9381 12.475 17.8716C12.3429 17.8051 12.2283 17.7085 12.1403 17.5896C11.9817 17.3647 11.8485 17.123 11.743 16.8688C11.3513 15.9721 11.06 14.7026 10.8538 13.3026C10.4432 10.5215 10.4054 7.50301 10.4054 6.62139C10.4054 6.37051 10.3057 6.12991 10.1283 5.95251C9.95094 5.77511 9.71034 5.67545 9.45946 5.67545C9.20858 5.67545 8.96797 5.77511 8.79058 5.95251C8.61318 6.12991 8.51351 6.37051 8.51351 6.62139C8.51351 7.37342 8.54 9.65504 8.79446 12.0786C8.84649 12.5761 8.90797 13.0813 8.98176 13.5788C9.19554 15.029 9.51622 16.498 10.0109 17.6275C10.4423 18.6131 11.1858 19.7161 12.4004 19.8504C12.632 19.8758 12.8461 19.9858 13.0017 20.1594C13.1572 20.3329 13.2432 20.5577 13.2432 20.7907V21.5503C13.4731 21.6194 13.7654 21.7007 14.1097 21.7821C15.0613 22.0053 16.4055 22.2295 17.973 22.2295C19.2733 22.2283 20.5691 22.0782 21.8353 21.7821C22.1805 21.7007 22.4728 21.6194 22.7027 21.5503ZM13.2432 23.515C14.788 23.9155 16.3772 24.1189 17.973 24.1204C19.5688 24.1189 21.158 23.9155 22.7027 23.515V23.935C22.7027 24.0866 22.7391 24.236 22.8088 24.3705C22.8786 24.5051 22.9797 24.6209 23.1035 24.7083C23.2274 24.7956 23.3705 24.8519 23.5206 24.8724C23.6708 24.8929 23.8237 24.8771 23.9665 24.8261L24.4867 24.6398C25.4535 24.2926 26.3701 23.9653 27.0531 23.7922C27.3993 23.7052 27.8089 23.6238 28.1693 23.656C28.3528 23.6721 28.6423 23.726 28.8996 23.936C29.2004 24.18 29.3243 24.5234 29.3243 24.8441C29.3243 25.5413 29.0727 27.454 28.8409 28.9836C28.7424 29.6477 28.6317 30.31 28.5089 30.97C28.4285 31.3844 28.3746 31.6123 28.2686 31.7902L28.2639 31.7977C28.1683 31.9592 28.0271 32.0887 27.858 32.17C27.6889 32.2513 27.4995 32.2808 27.3137 32.2547C27.128 32.2286 26.954 32.1481 26.8139 32.0233C26.6738 31.8986 26.5737 31.7352 26.5262 31.5537V31.5518C26.4127 31.1337 26.3673 30.6503 26.3417 30.0903C26.3351 29.9418 26.3295 29.7829 26.3238 29.6183C26.3105 29.2068 26.2954 28.7613 26.2547 28.3536L26.1459 27.2979C26.1309 27.1554 26.0838 27.0183 26.0081 26.8967C25.9323 26.7752 25.83 26.6724 25.7088 26.5961C25.5875 26.5199 25.4505 26.4722 25.3082 26.4566C25.1658 26.441 25.0218 26.4579 24.8869 26.5061C23.8312 26.8845 22.6299 27.3102 21.4512 27.6413C20.2726 27.9723 19.0504 28.2287 17.973 28.2287C16.8955 28.2287 15.6734 27.9723 14.4947 27.6413C13.388 27.3291 12.2604 26.9346 11.253 26.5752L11.0666 26.509C10.9295 26.4599 10.7828 26.4432 10.6382 26.4601C10.4935 26.477 10.3547 26.5271 10.2326 26.6065C10.1104 26.6859 10.0083 26.7924 9.93406 26.9177C9.85985 27.0431 9.81559 27.1838 9.80473 27.3291C9.76973 27.7926 9.73189 28.3053 9.69311 28.8048C9.63351 29.5738 9.57487 30.3183 9.52946 30.814L9.52567 30.8565C9.48594 31.2964 9.46608 31.5149 9.38284 31.6975L9.37716 31.7107C9.31243 31.8482 9.21555 31.9681 9.0947 32.0603C8.97385 32.1525 8.83259 32.2142 8.68285 32.2403C8.53311 32.2664 8.37929 32.256 8.2344 32.2101C8.08951 32.1642 7.9578 32.0841 7.85041 31.9765C7.65176 31.7779 7.62811 31.5906 7.54108 30.8925L7.53446 30.8376C7.51081 30.6456 7.47581 30.4119 7.4323 30.1442C7.35662 29.676 7.25824 29.1292 7.15608 28.5569L7.10878 28.2987C6.99152 27.6549 6.8821 27.0097 6.78054 26.3633C6.69257 25.7891 6.62162 25.23 6.62162 24.8431C6.62162 24.5234 6.7446 24.181 7.04635 23.935C7.22703 23.7884 7.42473 23.7175 7.58838 23.6834C7.65838 23.6683 7.72176 23.6607 7.77568 23.655C8.13703 23.6238 8.54662 23.7052 8.89189 23.7922C9.06216 23.8357 9.24568 23.8868 9.44054 23.9473C9.98919 24.1157 10.6315 24.3427 11.3022 24.583L11.9795 24.8261C12.1222 24.8771 12.2751 24.8929 12.4253 24.8724C12.5755 24.8519 12.7185 24.7956 12.8424 24.7083C12.9663 24.6209 13.0673 24.5051 13.1371 24.3705C13.2069 24.236 13.2433 24.0866 13.2432 23.935V23.515Z" fill="#FF5520" stroke="white" stroke-width="0.7"/>
</g>
<defs>
<clipPath id="clip0_387_79">
<rect width="35" height="35" fill="white"/>
</clipPath>
</defs>
</svg>
