<svg width="70" height="61" viewBox="0 0 70 61" fill="none" xmlns="http://www.w3.org/2000/svg">
<g clip-path="url(#clip0_434_896)">
<path d="M62.6504 52.9999H55.7853V20.1875L35.19 34.2499L14.5947 20.1875V52.9999H7.72959V7.99998H11.8486L35.19 23.9374L58.5313 7.99998H62.6504V52.9999ZM62.6504 0.5H7.72959C3.91946 0.5 0.864487 3.83749 0.864487 7.99998V52.9999C0.864487 54.989 1.58777 56.8966 2.87523 58.3032C4.16268 59.7097 5.90885 60.4999 7.72959 60.4999H62.6504C64.4711 60.4999 66.2173 59.7097 67.5048 58.3032C68.7922 56.8966 69.5155 54.989 69.5155 52.9999V7.99998C69.5155 6.01086 68.7922 4.10321 67.5048 2.69669C66.2173 1.29017 64.4711 0.5 62.6504 0.5V0.5Z" fill="#002539"/>
</g>
<defs>
<clipPath id="clip0_434_896">
<path d="M0 5.5C0 2.73858 2.23858 0.5 5 0.5H65C67.7614 0.5 70 2.73858 70 5.5V60.5H0V5.5Z" fill="white"/>
</clipPath>
</defs>
</svg>
